solid Exported from Blender-2.79 (sub 0)
facet normal -1.000000 0.000000 0.000000
outer loop
vertex -100.000000 -100.000000 -0.250000
vertex -100.000000 -100.000000 0.250000
vertex -100.000000 100.000000 0.250000
endloop
endfacet
facet normal -1.000000 0.000000 0.000000
outer loop
vertex -100.000000 100.000000 0.250000
vertex -100.000000 100.000000 -0.250000
vertex -100.000000 -100.000000 -0.250000
endloop
endfacet
facet normal 0.000000 1.000000 0.000000
outer loop
vertex -100.000000 100.000000 -0.250000
vertex -100.000000 100.000000 0.250000
vertex 100.000000 100.000000 0.250000
endloop
endfacet
facet normal 0.000000 1.000000 0.000000
outer loop
vertex 100.000000 100.000000 0.250000
vertex 100.000000 100.000000 -0.250000
vertex -100.000000 100.000000 -0.250000
endloop
endfacet
facet normal 1.000000 0.000000 0.000000
outer loop
vertex 100.000000 100.000000 -0.250000
vertex 100.000000 100.000000 0.250000
vertex 100.000000 -100.000000 0.250000
endloop
endfacet
facet normal 1.000000 0.000000 0.000000
outer loop
vertex 100.000000 -100.000000 0.250000
vertex 100.000000 -100.000000 -0.250000
vertex 100.000000 100.000000 -0.250000
endloop
endfacet
facet normal 0.000000 -1.000000 0.000000
outer loop
vertex -100.000000 -100.000000 0.250000
vertex -100.000000 -100.000000 -0.250000
vertex 100.000000 -100.000000 -0.250000
endloop
endfacet
facet normal 0.000000 -1.000000 0.000000
outer loop
vertex 100.000000 -100.000000 -0.250000
vertex 100.000000 -100.000000 0.250000
vertex -100.000000 -100.000000 0.250000
endloop
endfacet
facet normal 0.000000 0.000000 -1.000000
outer loop
vertex -45.000000 55.000000 -0.250000
vertex -100.000000 100.000000 -0.250000
vertex 100.000000 100.000000 -0.250000
endloop
endfacet
facet normal -0.000000 0.000000 -1.000000
outer loop
vertex 100.000000 100.000000 -0.250000
vertex 84.999992 15.000004 -0.250000
vertex 84.999992 45.000000 -0.250000
endloop
endfacet
facet normal 0.000000 0.000000 -1.000000
outer loop
vertex 84.999992 45.000000 -0.250000
vertex 54.999996 45.000000 -0.250000
vertex -15.000001 55.000000 -0.250000
endloop
endfacet
facet normal 0.000000 0.000000 -1.000000
outer loop
vertex -15.000001 55.000000 -0.250000
vertex -45.000000 55.000000 -0.250000
vertex 100.000000 100.000000 -0.250000
endloop
endfacet
facet normal 0.000000 0.000000 -1.000000
outer loop
vertex 100.000000 100.000000 -0.250000
vertex 84.999992 45.000000 -0.250000
vertex -15.000001 55.000000 -0.250000
endloop
endfacet
facet normal 0.000000 0.000000 1.000000
outer loop
vertex 100.000000 -100.000000 0.250000
vertex 100.000000 100.000000 0.250000
vertex 84.999992 45.000000 0.250000
endloop
endfacet
facet normal -0.000000 0.000000 1.000000
outer loop
vertex 100.000000 -100.000000 0.250000
vertex 84.999992 45.000000 0.250000
vertex 84.999992 15.000004 0.250000
endloop
endfacet
facet normal 0.000000 0.000000 1.000000
outer loop
vertex -35.000004 -45.000000 0.250000
vertex 100.000000 -100.000000 0.250000
vertex 84.999992 15.000004 0.250000
endloop
endfacet
facet normal 0.000000 0.000000 1.000000
outer loop
vertex 54.999996 15.000004 0.250000
vertex -15.000001 50.000008 0.250000
vertex -15.000001 25.000006 0.250000
endloop
endfacet
facet normal 0.000000 0.000000 1.000000
outer loop
vertex -35.000004 -45.000000 0.250000
vertex 84.999992 15.000004 0.250000
vertex 54.999996 15.000004 0.250000
endloop
endfacet
facet normal 0.000000 0.000000 1.000000
outer loop
vertex -100.000000 -100.000000 0.250000
vertex -65.000000 -74.999992 0.250000
vertex -65.000000 -45.000000 0.250000
endloop
endfacet
facet normal 0.000000 0.000000 1.000000
outer loop
vertex -65.000000 -45.000000 0.250000
vertex -35.000004 -45.000000 0.250000
vertex 54.999996 15.000004 0.250000
endloop
endfacet
facet normal 0.000000 0.000000 1.000000
outer loop
vertex 54.999996 15.000004 0.250000
vertex -15.000001 25.000006 0.250000
vertex -45.000000 25.000006 0.250000
endloop
endfacet
facet normal 0.000000 0.000000 1.000000
outer loop
vertex -45.000000 25.000006 0.250000
vertex -45.000000 45.000000 0.250000
vertex -100.000000 100.000000 0.250000
endloop
endfacet
facet normal 0.000000 0.000000 1.000000
outer loop
vertex -100.000000 100.000000 0.250000
vertex -100.000000 -100.000000 0.250000
vertex -65.000000 -45.000000 0.250000
endloop
endfacet
facet normal 0.000000 0.000000 1.000000
outer loop
vertex -65.000000 -45.000000 0.250000
vertex 54.999996 15.000004 0.250000
vertex -45.000000 25.000006 0.250000
endloop
endfacet
facet normal 0.000000 0.000000 1.000000
outer loop
vertex -45.000000 25.000006 0.250000
vertex -100.000000 100.000000 0.250000
vertex -65.000000 -45.000000 0.250000
endloop
endfacet
facet normal 1.000000 0.000000 0.000000
outer loop
vertex 54.999996 45.000000 -0.250000
vertex 54.999996 45.000000 0.250000
vertex 54.999996 15.000004 0.250000
endloop
endfacet
facet normal 1.000000 0.000000 0.000000
outer loop
vertex 54.999996 15.000004 0.250000
vertex 54.999996 15.000004 -0.250000
vertex 54.999996 45.000000 -0.250000
endloop
endfacet
facet normal -1.000000 0.000000 0.000000
outer loop
vertex -35.000004 -74.999992 -0.250000
vertex -35.000004 -74.999992 0.250000
vertex -35.000004 -45.000000 0.250000
endloop
endfacet
facet normal -1.000000 0.000000 0.000000
outer loop
vertex -35.000004 -45.000000 0.250000
vertex -35.000004 -45.000000 -0.250000
vertex -35.000004 -74.999992 -0.250000
endloop
endfacet
facet normal 0.000000 -1.000000 0.000000
outer loop
vertex 84.999992 45.000000 -0.250000
vertex 84.999992 45.000000 0.250000
vertex 54.999996 45.000000 0.250000
endloop
endfacet
facet normal 0.000000 -1.000000 0.000000
outer loop
vertex 54.999996 45.000000 0.250000
vertex 54.999996 45.000000 -0.250000
vertex 84.999992 45.000000 -0.250000
endloop
endfacet
facet normal 0.000000 1.000000 0.000000
outer loop
vertex -65.000000 -74.999992 -0.250000
vertex -65.000000 -74.999992 0.250000
vertex -35.000004 -74.999992 0.250000
endloop
endfacet
facet normal 0.000000 1.000000 0.000000
outer loop
vertex -35.000004 -74.999992 0.250000
vertex -35.000004 -74.999992 -0.250000
vertex -65.000000 -74.999992 -0.250000
endloop
endfacet
facet normal -1.000000 0.000000 0.000000
outer loop
vertex 84.999992 15.000004 -0.250000
vertex 84.999992 15.000004 0.250000
vertex 84.999992 45.000000 0.250000
endloop
endfacet
facet normal -1.000000 0.000000 0.000000
outer loop
vertex 84.999992 45.000000 0.250000
vertex 84.999992 45.000000 -0.250000
vertex 84.999992 15.000004 -0.250000
endloop
endfacet
facet normal 0.000000 1.000000 0.000000
outer loop
vertex 54.999996 15.000004 -0.250000
vertex 54.999996 15.000004 0.250000
vertex 84.999992 15.000004 0.250000
endloop
endfacet
facet normal 0.000000 1.000000 0.000000
outer loop
vertex 84.999992 15.000004 0.250000
vertex 84.999992 15.000004 -0.250000
vertex 54.999996 15.000004 -0.250000
endloop
endfacet
facet normal 0.000000 1.000000 0.000000
outer loop
vertex -45.000000 25.000006 -0.250000
vertex -45.000000 25.000006 0.250000
vertex -15.000001 25.000006 0.250000
endloop
endfacet
facet normal 0.000000 1.000000 0.000000
outer loop
vertex -15.000001 25.000006 0.250000
vertex -15.000001 25.000006 -0.250000
vertex -45.000000 25.000006 -0.250000
endloop
endfacet
facet normal 0.000000 0.000000 -1.000000
outer loop
vertex -15.000001 25.000006 -0.250000
vertex -15.000001 55.000000 -0.250000
vertex 54.999996 45.000000 -0.250000
endloop
endfacet
facet normal 0.000000 0.000000 -1.000000
outer loop
vertex -15.000001 25.000006 -0.250000
vertex 54.999996 45.000000 -0.250000
vertex 54.999996 15.000004 -0.250000
endloop
endfacet
facet normal -0.000000 0.000000 -1.000000
outer loop
vertex -100.000000 100.000000 -0.250000
vertex -45.000000 55.000000 -0.250000
vertex -45.000000 25.000006 -0.250000
endloop
endfacet
facet normal 0.000000 0.000000 -1.000000
outer loop
vertex -45.000000 25.000006 -0.250000
vertex -15.000001 25.000006 -0.250000
vertex 54.999996 15.000004 -0.250000
endloop
endfacet
facet normal 0.000000 0.000000 -1.000000
outer loop
vertex 84.999992 15.000004 -0.250000
vertex 100.000000 100.000000 -0.250000
vertex 100.000000 -100.000000 -0.250000
endloop
endfacet
facet normal 0.000000 0.000000 -1.000000
outer loop
vertex 54.999996 15.000004 -0.250000
vertex 84.999992 15.000004 -0.250000
vertex 100.000000 -100.000000 -0.250000
endloop
endfacet
facet normal 0.000000 0.000000 -1.000000
outer loop
vertex 100.000000 -100.000000 -0.250000
vertex -35.000004 -74.999992 -0.250000
vertex -35.000004 -45.000000 -0.250000
endloop
endfacet
facet normal 0.000000 0.000000 -1.000000
outer loop
vertex -65.000000 -45.000000 -0.250000
vertex -100.000000 -100.000000 -0.250000
vertex -100.000000 100.000000 -0.250000
endloop
endfacet
facet normal 0.000000 0.000000 -1.000000
outer loop
vertex 54.999996 15.000004 -0.250000
vertex 100.000000 -100.000000 -0.250000
vertex -35.000004 -45.000000 -0.250000
endloop
endfacet
facet normal 0.000000 0.000000 -1.000000
outer loop
vertex -35.000004 -45.000000 -0.250000
vertex -65.000000 -45.000000 -0.250000
vertex -100.000000 100.000000 -0.250000
endloop
endfacet
facet normal 0.000000 0.000000 -1.000000
outer loop
vertex -45.000000 25.000006 -0.250000
vertex 54.999996 15.000004 -0.250000
vertex -35.000004 -45.000000 -0.250000
endloop
endfacet
facet normal 0.000000 0.000000 -1.000000
outer loop
vertex -45.000000 25.000006 -0.250000
vertex -35.000004 -45.000000 -0.250000
vertex -100.000000 100.000000 -0.250000
endloop
endfacet
facet normal 0.000000 0.000000 -1.000000
outer loop
vertex -100.000000 -100.000000 -0.250000
vertex -65.000000 -45.000000 -0.250000
vertex -65.000000 -74.999992 -0.250000
endloop
endfacet
facet normal 0.000000 0.000000 -1.000000
outer loop
vertex -65.000000 -74.999992 -0.250000
vertex -35.000004 -74.999992 -0.250000
vertex 100.000000 -100.000000 -0.250000
endloop
endfacet
facet normal 0.000000 0.000000 -1.000000
outer loop
vertex -100.000000 -100.000000 -0.250000
vertex -65.000000 -74.999992 -0.250000
vertex 100.000000 -100.000000 -0.250000
endloop
endfacet
facet normal -1.000000 0.000000 0.000000
outer loop
vertex -15.000001 55.000000 -0.250000
vertex -15.000001 25.000006 -0.250000
vertex -15.000001 25.000006 0.250000
endloop
endfacet
facet normal -1.000000 0.000000 0.000000
outer loop
vertex -15.000001 50.000008 0.250000
vertex -15.000001 55.000000 0.250000
vertex -15.000001 55.000000 -0.250000
endloop
endfacet
facet normal -1.000000 0.000000 0.000000
outer loop
vertex -15.000001 25.000006 0.250000
vertex -15.000001 50.000008 0.250000
vertex -15.000001 55.000000 -0.250000
endloop
endfacet
facet normal 1.000000 0.000000 0.000000
outer loop
vertex -65.000000 -45.000000 -0.250000
vertex -65.000000 -45.000000 0.250000
vertex -65.000000 -74.999992 0.250000
endloop
endfacet
facet normal 1.000000 0.000000 0.000000
outer loop
vertex -65.000000 -74.999992 0.250000
vertex -65.000000 -74.999992 -0.250000
vertex -65.000000 -45.000000 -0.250000
endloop
endfacet
facet normal 0.000000 -1.000000 0.000000
outer loop
vertex -15.000001 55.000000 -0.250000
vertex -15.000001 55.000000 0.250000
vertex -45.000000 55.000000 0.250000
endloop
endfacet
facet normal 0.000000 -1.000000 0.000000
outer loop
vertex -45.000000 55.000000 0.250000
vertex -45.000000 55.000000 -0.250000
vertex -15.000001 55.000000 -0.250000
endloop
endfacet
facet normal 0.000000 -1.000000 0.000000
outer loop
vertex -35.000004 -45.000000 -0.250000
vertex -35.000004 -45.000000 0.250000
vertex -65.000000 -45.000000 0.250000
endloop
endfacet
facet normal 0.000000 -1.000000 0.000000
outer loop
vertex -65.000000 -45.000000 0.250000
vertex -65.000000 -45.000000 -0.250000
vertex -35.000004 -45.000000 -0.250000
endloop
endfacet
facet normal 1.000000 0.000000 0.000000
outer loop
vertex -45.000000 25.000006 -0.250000
vertex -45.000000 55.000000 -0.250000
vertex -45.000000 55.000000 0.250000
endloop
endfacet
facet normal 1.000000 0.000000 0.000000
outer loop
vertex -45.000000 45.000000 0.250000
vertex -45.000000 25.000006 0.250000
vertex -45.000000 25.000006 -0.250000
endloop
endfacet
facet normal 1.000000 0.000000 0.000000
outer loop
vertex -45.000000 55.000000 0.250000
vertex -45.000000 45.000000 0.250000
vertex -45.000000 25.000006 -0.250000
endloop
endfacet
facet normal 0.000000 0.000000 1.000000
outer loop
vertex 100.000000 -100.000000 0.250000
vertex -35.000004 -45.000000 0.250000
vertex -35.000004 -74.999992 0.250000
endloop
endfacet
facet normal 0.000000 0.000000 1.000000
outer loop
vertex -35.000004 -74.999992 0.250000
vertex -65.000000 -74.999992 0.250000
vertex -100.000000 -100.000000 0.250000
endloop
endfacet
facet normal 0.000000 0.000000 1.000000
outer loop
vertex 100.000000 -100.000000 0.250000
vertex -35.000004 -74.999992 0.250000
vertex -100.000000 -100.000000 0.250000
endloop
endfacet
facet normal 0.000000 0.000000 1.000000
outer loop
vertex -100.000000 100.000000 0.250000
vertex -45.000000 45.000000 0.250000
vertex -45.000000 55.000000 0.250000
endloop
endfacet
facet normal 0.000000 0.000000 1.000000
outer loop
vertex -45.000000 55.000000 0.250000
vertex -15.000001 55.000000 0.250000
vertex 100.000000 100.000000 0.250000
endloop
endfacet
facet normal 0.000000 0.000000 1.000000
outer loop
vertex -100.000000 100.000000 0.250000
vertex -45.000000 55.000000 0.250000
vertex 100.000000 100.000000 0.250000
endloop
endfacet
facet normal 0.000000 0.000000 1.000000
outer loop
vertex 100.000000 100.000000 0.250000
vertex -15.000001 55.000000 0.250000
vertex -15.000001 50.000008 0.250000
endloop
endfacet
facet normal 0.000000 0.000000 1.000000
outer loop
vertex -15.000001 50.000008 0.250000
vertex 54.999996 15.000004 0.250000
vertex 54.999996 45.000000 0.250000
endloop
endfacet
facet normal 0.000000 0.000000 1.000000
outer loop
vertex 54.999996 45.000000 0.250000
vertex 84.999992 45.000000 0.250000
vertex 100.000000 100.000000 0.250000
endloop
endfacet
facet normal 0.000000 0.000000 1.000000
outer loop
vertex -15.000001 50.000008 0.250000
vertex 54.999996 45.000000 0.250000
vertex 100.000000 100.000000 0.250000
endloop
endfacet
endsolid Exported from Blender-2.79 (sub 0)
