solid Exported from Blender-2.79 (sub 0)
facet normal -1.000000 0.000000 0.000000
outer loop
vertex -50.000000 -50.000000 -0.200000
vertex -50.000000 -50.000000 0.200000
vertex -50.000000 -38.000000 0.200000
endloop
endfacet
facet normal -1.000000 0.000000 0.000000
outer loop
vertex -50.000000 -38.000000 0.200000
vertex -50.000000 -38.000000 -0.200000
vertex -50.000000 -50.000000 -0.200000
endloop
endfacet
facet normal 1.000000 0.000000 0.000000
outer loop
vertex 50.000000 50.000000 -0.200000
vertex 50.000000 50.000000 0.200000
vertex 50.000000 -31.777060 0.200000
endloop
endfacet
facet normal 1.000000 0.000000 0.000000
outer loop
vertex 50.000000 -31.777060 0.200000
vertex 50.000000 -31.777060 -0.200000
vertex 50.000000 50.000000 -0.200000
endloop
endfacet
facet normal 0.000000 0.000000 1.000000
outer loop
vertex 6.999996 30.999998 0.200000
vertex 50.000000 50.000000 0.200000
vertex -33.927410 50.000000 0.200000
endloop
endfacet
facet normal 0.000000 0.000000 1.000000
outer loop
vertex -33.927410 40.830193 0.200000
vertex -50.000000 40.830196 0.200000
vertex -50.000000 22.000004 0.200000
endloop
endfacet
facet normal 0.000000 0.000000 1.000000
outer loop
vertex 6.999996 30.999998 0.200000
vertex -33.927410 50.000000 0.200000
vertex -33.927410 40.830193 0.200000
endloop
endfacet
facet normal 0.000000 0.000000 1.000000
outer loop
vertex -33.000000 -38.000000 0.200000
vertex -23.000002 -29.000002 0.200000
vertex -23.000002 30.999998 0.200000
endloop
endfacet
facet normal 0.000000 0.000000 1.000000
outer loop
vertex -23.000002 30.999998 0.200000
vertex 6.999996 30.999998 0.200000
vertex -33.927410 40.830193 0.200000
endloop
endfacet
facet normal -0.000000 0.000000 1.000000
outer loop
vertex -33.927410 40.830193 0.200000
vertex -50.000000 22.000004 0.200000
vertex -33.000000 22.000000 0.200000
endloop
endfacet
facet normal -0.000000 0.000000 1.000000
outer loop
vertex -33.000000 22.000000 0.200000
vertex -33.000000 -38.000000 0.200000
vertex -23.000002 30.999998 0.200000
endloop
endfacet
facet normal 0.000000 0.000000 1.000000
outer loop
vertex -33.927410 40.830193 0.200000
vertex -33.000000 22.000000 0.200000
vertex -23.000002 30.999998 0.200000
endloop
endfacet
facet normal 1.000000 0.000000 0.000000
outer loop
vertex 31.357088 -31.777060 -0.200000
vertex 31.357088 -31.777060 0.200000
vertex 31.357092 -50.000000 0.200000
endloop
endfacet
facet normal 1.000000 0.000000 0.000000
outer loop
vertex 31.357092 -50.000000 0.200000
vertex 31.357092 -50.000000 -0.200000
vertex 31.357088 -31.777060 -0.200000
endloop
endfacet
facet normal -1.000000 0.000000 0.000000
outer loop
vertex -33.927410 40.830193 -0.200000
vertex -33.927410 40.830193 0.200000
vertex -33.927410 50.000000 0.200000
endloop
endfacet
facet normal -1.000000 0.000000 0.000000
outer loop
vertex -33.927410 50.000000 0.200000
vertex -33.927410 50.000000 -0.200000
vertex -33.927410 40.830193 -0.200000
endloop
endfacet
facet normal 0.000000 -1.000000 0.000000
outer loop
vertex 31.357088 -31.777060 0.200000
vertex 31.357088 -31.777060 -0.200000
vertex 50.000000 -31.777060 -0.200000
endloop
endfacet
facet normal 0.000000 -1.000000 0.000000
outer loop
vertex 50.000000 -31.777060 -0.200000
vertex 50.000000 -31.777060 0.200000
vertex 31.357088 -31.777060 0.200000
endloop
endfacet
facet normal 0.000000 1.000000 0.000000
outer loop
vertex -33.927410 40.830193 0.200000
vertex -33.927410 40.830193 -0.200000
vertex -50.000000 40.830196 -0.200000
endloop
endfacet
facet normal 0.000000 1.000000 0.000000
outer loop
vertex -50.000000 40.830196 -0.200000
vertex -50.000000 40.830196 0.200000
vertex -33.927410 40.830193 0.200000
endloop
endfacet
facet normal -1.000000 0.000000 0.000000
outer loop
vertex -33.000000 -38.000000 -0.200000
vertex -33.000000 -38.000000 0.200000
vertex -33.000000 22.000000 0.200000
endloop
endfacet
facet normal -1.000000 0.000000 0.000000
outer loop
vertex -33.000000 22.000000 0.200000
vertex -33.000000 22.000000 -0.200000
vertex -33.000000 -38.000000 -0.200000
endloop
endfacet
facet normal 1.000000 0.000000 0.000000
outer loop
vertex -23.000002 30.999998 -0.200000
vertex -23.000002 30.999998 0.200000
vertex -23.000002 -29.000002 0.200000
endloop
endfacet
facet normal 1.000000 0.000000 0.000000
outer loop
vertex -23.000002 -29.000002 0.200000
vertex -23.000002 -29.000002 -0.200000
vertex -23.000002 30.999998 -0.200000
endloop
endfacet
facet normal -1.000000 0.000000 0.000000
outer loop
vertex -50.000000 22.000004 -0.200000
vertex -50.000000 22.000004 0.200000
vertex -50.000000 40.830196 0.200000
endloop
endfacet
facet normal -1.000000 0.000000 0.000000
outer loop
vertex -50.000000 40.830196 0.200000
vertex -50.000000 40.830196 -0.200000
vertex -50.000000 22.000004 -0.200000
endloop
endfacet
facet normal 0.000000 1.000000 0.000000
outer loop
vertex -23.000002 -29.000002 -0.200000
vertex -23.000002 -29.000002 0.200000
vertex 6.999996 -29.000002 0.200000
endloop
endfacet
facet normal 0.000000 1.000000 0.000000
outer loop
vertex 6.999996 -29.000002 0.200000
vertex 6.999996 -29.000002 -0.200000
vertex -23.000002 -29.000002 -0.200000
endloop
endfacet
facet normal 0.000000 -1.000000 0.000000
outer loop
vertex 6.999996 30.999998 -0.200000
vertex 6.999996 30.999998 0.200000
vertex -23.000002 30.999998 0.200000
endloop
endfacet
facet normal 0.000000 -1.000000 0.000000
outer loop
vertex -23.000002 30.999998 0.200000
vertex -23.000002 30.999998 -0.200000
vertex 6.999996 30.999998 -0.200000
endloop
endfacet
facet normal 0.000000 1.000000 0.000000
outer loop
vertex 19.357094 -5.777055 -0.200000
vertex 19.357094 -5.777055 0.200000
vertex 39.357086 -5.777055 0.200000
endloop
endfacet
facet normal 0.000000 1.000000 0.000000
outer loop
vertex 39.357086 -5.777055 0.200000
vertex 39.357086 -5.777055 -0.200000
vertex 19.357094 -5.777055 -0.200000
endloop
endfacet
facet normal -1.000000 0.000000 0.000000
outer loop
vertex 39.357086 -5.777055 -0.200000
vertex 39.357086 -5.777055 0.200000
vertex 39.357086 14.222944 0.200000
endloop
endfacet
facet normal -1.000000 0.000000 0.000000
outer loop
vertex 39.357086 14.222944 0.200000
vertex 39.357086 14.222944 -0.200000
vertex 39.357086 -5.777055 -0.200000
endloop
endfacet
facet normal -0.000000 -1.000000 0.000000
outer loop
vertex -33.000000 22.000000 -0.200000
vertex -33.000000 22.000000 0.200000
vertex -50.000000 22.000004 0.200000
endloop
endfacet
facet normal -0.000000 -1.000000 0.000000
outer loop
vertex -50.000000 22.000004 0.200000
vertex -50.000000 22.000004 -0.200000
vertex -33.000000 22.000000 -0.200000
endloop
endfacet
facet normal 0.000000 0.000000 -1.000000
outer loop
vertex -50.000000 22.000004 -0.200000
vertex -50.000000 40.830196 -0.200000
vertex -33.927410 40.830193 -0.200000
endloop
endfacet
facet normal 0.000000 0.000000 -1.000000
outer loop
vertex -33.927410 40.830193 -0.200000
vertex -33.927410 50.000000 -0.200000
vertex 50.000000 50.000000 -0.200000
endloop
endfacet
facet normal -0.000000 0.000000 -1.000000
outer loop
vertex 50.000000 50.000000 -0.200000
vertex 50.000000 -31.777060 -0.200000
vertex 39.357086 -5.777055 -0.200000
endloop
endfacet
facet normal 0.000000 0.000000 -1.000000
outer loop
vertex 50.000000 50.000000 -0.200000
vertex 39.357086 -5.777055 -0.200000
vertex 39.357086 14.222944 -0.200000
endloop
endfacet
facet normal -0.000000 0.000000 -1.000000
outer loop
vertex -23.000002 30.999998 -0.200000
vertex -50.000000 22.000004 -0.200000
vertex -33.927410 40.830193 -0.200000
endloop
endfacet
facet normal -0.000000 0.000000 -1.000000
outer loop
vertex 19.357094 14.222944 -0.200000
vertex 6.999993 6.999993 -0.200000
vertex 6.999996 30.999998 -0.200000
endloop
endfacet
facet normal 0.000000 0.000000 -1.000000
outer loop
vertex 6.999996 30.999998 -0.200000
vertex -23.000002 30.999998 -0.200000
vertex -33.927410 40.830193 -0.200000
endloop
endfacet
facet normal 0.000000 0.000000 -1.000000
outer loop
vertex 50.000000 50.000000 -0.200000
vertex 39.357086 14.222944 -0.200000
vertex 19.357094 14.222944 -0.200000
endloop
endfacet
facet normal 0.000000 0.000000 -1.000000
outer loop
vertex 6.999996 30.999998 -0.200000
vertex -33.927410 40.830193 -0.200000
vertex 50.000000 50.000000 -0.200000
endloop
endfacet
facet normal 0.000000 0.000000 -1.000000
outer loop
vertex 50.000000 50.000000 -0.200000
vertex 19.357094 14.222944 -0.200000
vertex 6.999996 30.999998 -0.200000
endloop
endfacet
facet normal 0.000000 0.000000 -1.000000
outer loop
vertex -33.000000 22.000000 -0.200000
vertex -50.000000 22.000004 -0.200000
vertex -23.000002 30.999998 -0.200000
endloop
endfacet
facet normal -0.000000 0.000000 -1.000000
outer loop
vertex -33.000000 22.000000 -0.200000
vertex -23.000002 30.999998 -0.200000
vertex -23.000002 -29.000002 -0.200000
endloop
endfacet
facet normal 0.000000 0.000000 -1.000000
outer loop
vertex -50.000000 -50.000000 -0.200000
vertex -50.000000 -38.000000 -0.200000
vertex -33.000000 -38.000000 -0.200000
endloop
endfacet
facet normal 0.000000 0.000000 -1.000000
outer loop
vertex -33.000000 -38.000000 -0.200000
vertex -33.000000 22.000000 -0.200000
vertex -23.000002 -29.000002 -0.200000
endloop
endfacet
facet normal 0.000000 0.000000 -1.000000
outer loop
vertex 6.999996 -29.000002 -0.200000
vertex 6.999993 6.999993 -0.200000
vertex 19.357094 14.222944 -0.200000
endloop
endfacet
facet normal 0.000000 0.000000 -1.000000
outer loop
vertex -33.000000 -38.000000 -0.200000
vertex -23.000002 -29.000002 -0.200000
vertex 6.999996 -29.000002 -0.200000
endloop
endfacet
facet normal 0.000000 0.000000 -1.000000
outer loop
vertex 31.357092 -50.000000 -0.200000
vertex -50.000000 -50.000000 -0.200000
vertex -33.000000 -38.000000 -0.200000
endloop
endfacet
facet normal 0.000000 0.000000 -1.000000
outer loop
vertex 39.357086 -5.777055 -0.200000
vertex 50.000000 -31.777060 -0.200000
vertex 31.357088 -31.777060 -0.200000
endloop
endfacet
facet normal 0.000000 0.000000 -1.000000
outer loop
vertex 31.357088 -31.777060 -0.200000
vertex 31.357092 -50.000000 -0.200000
vertex -33.000000 -38.000000 -0.200000
endloop
endfacet
facet normal 0.000000 0.000000 -1.000000
outer loop
vertex 6.999996 -29.000002 -0.200000
vertex 19.357094 14.222944 -0.200000
vertex 19.357094 -5.777055 -0.200000
endloop
endfacet
facet normal -0.000000 0.000000 -1.000000
outer loop
vertex 31.357088 -31.777060 -0.200000
vertex -33.000000 -38.000000 -0.200000
vertex 6.999996 -29.000002 -0.200000
endloop
endfacet
facet normal 0.000000 0.000000 -1.000000
outer loop
vertex 19.357094 -5.777055 -0.200000
vertex 39.357086 -5.777055 -0.200000
vertex 31.357088 -31.777060 -0.200000
endloop
endfacet
facet normal 0.000000 0.000000 -1.000000
outer loop
vertex 6.999996 -29.000002 -0.200000
vertex 19.357094 -5.777055 -0.200000
vertex 31.357088 -31.777060 -0.200000
endloop
endfacet
facet normal 0.000000 -1.000000 0.000000
outer loop
vertex -50.000000 -50.000000 0.200000
vertex -50.000000 -50.000000 -0.200000
vertex 31.357092 -50.000000 -0.200000
endloop
endfacet
facet normal 0.000000 -1.000000 0.000000
outer loop
vertex 31.357092 -50.000000 -0.200000
vertex 31.357092 -50.000000 0.200000
vertex -50.000000 -50.000000 0.200000
endloop
endfacet
facet normal 0.000000 1.000000 0.000000
outer loop
vertex -33.000000 -38.000000 0.200000
vertex -33.000000 -38.000000 -0.200000
vertex -50.000000 -38.000000 -0.200000
endloop
endfacet
facet normal 0.000000 1.000000 0.000000
outer loop
vertex -50.000000 -38.000000 -0.200000
vertex -50.000000 -38.000000 0.200000
vertex -33.000000 -38.000000 0.200000
endloop
endfacet
facet normal -0.000000 0.000000 1.000000
outer loop
vertex 6.999996 30.999998 0.200000
vertex 6.999993 -6.999993 0.200000
vertex 19.357094 -5.777055 0.200000
endloop
endfacet
facet normal 0.000000 0.000000 1.000000
outer loop
vertex 19.357094 14.222944 0.200000
vertex 39.357086 14.222944 0.200000
vertex 50.000000 50.000000 0.200000
endloop
endfacet
facet normal 0.000000 0.000000 1.000000
outer loop
vertex 6.999996 30.999998 0.200000
vertex 19.357094 -5.777055 0.200000
vertex 19.357094 14.222944 0.200000
endloop
endfacet
facet normal 0.000000 0.000000 1.000000
outer loop
vertex 6.999996 30.999998 0.200000
vertex 19.357094 14.222944 0.200000
vertex 50.000000 50.000000 0.200000
endloop
endfacet
facet normal 0.000000 0.000000 1.000000
outer loop
vertex 50.000000 50.000000 0.200000
vertex 39.357086 14.222944 0.200000
vertex 39.357086 -5.777055 0.200000
endloop
endfacet
facet normal 0.000000 0.000000 1.000000
outer loop
vertex 39.357086 -5.777055 0.200000
vertex 19.357094 -5.777055 0.200000
vertex 6.999993 -6.999993 0.200000
endloop
endfacet
facet normal 0.000000 0.000000 1.000000
outer loop
vertex 6.999996 -29.000002 0.200000
vertex -23.000002 -29.000002 0.200000
vertex -33.000000 -38.000000 0.200000
endloop
endfacet
facet normal 0.000000 0.000000 1.000000
outer loop
vertex 39.357086 -5.777055 0.200000
vertex 6.999993 -6.999993 0.200000
vertex 6.999996 -29.000002 0.200000
endloop
endfacet
facet normal -0.000000 0.000000 1.000000
outer loop
vertex 50.000000 -31.777060 0.200000
vertex 50.000000 50.000000 0.200000
vertex 39.357086 -5.777055 0.200000
endloop
endfacet
facet normal 0.000000 0.000000 1.000000
outer loop
vertex -50.000000 -50.000000 0.200000
vertex 31.357092 -50.000000 0.200000
vertex 31.357088 -31.777060 0.200000
endloop
endfacet
facet normal 0.000000 0.000000 1.000000
outer loop
vertex 31.357088 -31.777060 0.200000
vertex 50.000000 -31.777060 0.200000
vertex 39.357086 -5.777055 0.200000
endloop
endfacet
facet normal 0.000000 0.000000 1.000000
outer loop
vertex 31.357088 -31.777060 0.200000
vertex 39.357086 -5.777055 0.200000
vertex 6.999996 -29.000002 0.200000
endloop
endfacet
facet normal 0.000000 0.000000 1.000000
outer loop
vertex -33.000000 -38.000000 0.200000
vertex -50.000000 -38.000000 0.200000
vertex -50.000000 -50.000000 0.200000
endloop
endfacet
facet normal -0.000000 0.000000 1.000000
outer loop
vertex 31.357088 -31.777060 0.200000
vertex 6.999996 -29.000002 0.200000
vertex -33.000000 -38.000000 0.200000
endloop
endfacet
facet normal 0.000000 0.000000 1.000000
outer loop
vertex -33.000000 -38.000000 0.200000
vertex -50.000000 -50.000000 0.200000
vertex 31.357088 -31.777060 0.200000
endloop
endfacet
facet normal -1.000000 -0.000000 0.000000
outer loop
vertex 6.999993 6.999993 -0.200000
vertex 6.999996 -29.000002 -0.200000
vertex 6.999996 -29.000002 0.200000
endloop
endfacet
facet normal -1.000000 0.000000 0.000000
outer loop
vertex 6.999993 -6.999993 0.200000
vertex 6.999996 30.999998 0.200000
vertex 6.999996 30.999998 -0.200000
endloop
endfacet
facet normal -1.000000 -0.000000 -0.000005
outer loop
vertex 6.999993 6.999993 -0.200000
vertex 6.999996 -29.000002 0.200000
vertex 6.999993 -6.999993 0.200000
endloop
endfacet
facet normal -1.000000 0.000000 0.000004
outer loop
vertex 6.999993 -6.999993 0.200000
vertex 6.999996 30.999998 -0.200000
vertex 6.999993 6.999993 -0.200000
endloop
endfacet
facet normal 0.000000 1.000000 0.000000
outer loop
vertex -33.927410 50.000000 -0.200000
vertex -33.927410 50.000000 0.200000
vertex 50.000000 50.000000 0.200000
endloop
endfacet
facet normal 0.000000 1.000000 0.000000
outer loop
vertex 50.000000 50.000000 0.200000
vertex 50.000000 50.000000 -0.200000
vertex -33.927410 50.000000 -0.200000
endloop
endfacet
facet normal 1.000000 0.000000 0.000000
outer loop
vertex 19.357094 14.222944 -0.200000
vertex 19.357094 14.222944 0.200000
vertex 19.357094 -5.777055 0.200000
endloop
endfacet
facet normal 1.000000 0.000000 0.000000
outer loop
vertex 19.357094 -5.777055 0.200000
vertex 19.357094 -5.777055 -0.200000
vertex 19.357094 14.222944 -0.200000
endloop
endfacet
facet normal 0.000000 -1.000000 0.000000
outer loop
vertex 39.357086 14.222944 -0.200000
vertex 39.357086 14.222944 0.200000
vertex 19.357094 14.222944 0.200000
endloop
endfacet
facet normal 0.000000 -1.000000 0.000000
outer loop
vertex 19.357094 14.222944 0.200000
vertex 19.357094 14.222944 -0.200000
vertex 39.357086 14.222944 -0.200000
endloop
endfacet
endsolid Exported from Blender-2.79 (sub 0)
