<?xml version="1.0" encoding="UTF-8" standalone="yes"?>
<!DOCTYPE svg PUBLIC "-//W3C//DTD SVG 1.0//EN" "http://www.w3.org/TR/2001/REC-SVG-20010904/DTD/svg10.dtd">
<svg width="200" height="200" xmlns="http://www.w3.org/2000/svg" xmlns:svg="http://www.w3.org/2000/svg" xmlns:xlink="http://www.w3.org/1999/xlink" xmlns:slic3r="http://slic3r.org/namespaces/slic3r">
  <!-- 
  Generated using Slic3r 1.3.0
  http://slic3r.org/
   -->
  <g id="layer0" slic3r:z="1.75e-07">
    <polygon slic3r:type="contour" points="200,200 0,200 0,0 200,0" style="fill: white" />
    <polygon slic3r:type="hole" points="55,125.000008 55,155 85,155 85,125.000008" style="fill: black" />
    <polygon slic3r:type="hole" points="155,115 155,145 185,145 185,115" style="fill: black" />
    <polygon slic3r:type="hole" points="35,25.000008 35,55 65,55 65,25.000008" style="fill: black" />
  </g>
  <g id="layer1" slic3r:z="5e-07">
    <polygon slic3r:type="contour" points="200,200 0,200 0,0 200,0" style="fill: white" />
    <polygon slic3r:type="hole" points="55,125.000008 55,155 85,155 85,125.000008" style="fill: black" />
    <polygon slic3r:type="hole" points="155,115 155,145 185,145 185,115" style="fill: black" />
    <polygon slic3r:type="hole" points="35,25.000008 35,55 65,55 65,25.000008" style="fill: black" />
  </g>
</svg>
