solid Exported from Blender-2.79 (sub 0)
facet normal -1.000000 0.000000 0.000000
outer loop
vertex -50.000000 -50.000000 -0.200000
vertex -50.000000 -50.000000 0.200000
vertex -50.000000 -38.000000 0.200000
endloop
endfacet
facet normal -1.000000 0.000000 0.000000
outer loop
vertex -50.000000 -38.000000 0.200000
vertex -50.000000 -38.000000 -0.200000
vertex -50.000000 -50.000000 -0.200000
endloop
endfacet
facet normal 1.000000 0.000000 0.000000
outer loop
vertex 50.000000 50.000000 -0.200000
vertex 50.000000 50.000000 0.200000
vertex 50.000000 -31.777060 0.200000
endloop
endfacet
facet normal 1.000000 0.000000 0.000000
outer loop
vertex 50.000000 -31.777060 0.200000
vertex 50.000000 -31.777060 -0.200000
vertex 50.000000 50.000000 -0.200000
endloop
endfacet
facet normal 0.000000 0.000000 1.000000
outer loop
vertex -33.927410 50.000000 0.200000
vertex 6.999996 30.999998 0.200000
vertex 11.782997 33.113419 0.200000
endloop
endfacet
facet normal 0.000000 0.000000 1.000000
outer loop
vertex -33.927410 50.000000 0.200000
vertex 11.782997 33.113419 0.200000
vertex 11.042987 34.015125 0.200000
endloop
endfacet
facet normal 0.000000 -0.000004 1.000000
outer loop
vertex 15.877556 49.952499 0.200000
vertex 16.034147 50.000000 0.200000
vertex -33.927410 50.000000 0.200000
endloop
endfacet
facet normal 0.000000 -0.000000 1.000000
outer loop
vertex 14.015130 48.957016 0.200000
vertex 15.877556 49.952499 0.200000
vertex -33.927410 50.000000 0.200000
endloop
endfacet
facet normal 0.000000 0.000000 1.000000
outer loop
vertex -33.927410 50.000000 0.200000
vertex 11.042987 34.015125 0.200000
vertex 10.047502 35.877548 0.200000
endloop
endfacet
facet normal 0.000000 0.000000 1.000000
outer loop
vertex -33.927410 50.000000 0.200000
vertex 10.047502 35.877548 0.200000
vertex 9.434486 37.898399 0.200000
endloop
endfacet
facet normal 0.000000 -0.000000 1.000000
outer loop
vertex 12.382700 47.617321 0.200000
vertex 14.015130 48.957016 0.200000
vertex -33.927410 50.000000 0.200000
endloop
endfacet
facet normal 0.000000 -0.000000 1.000000
outer loop
vertex 11.042998 45.984894 0.200000
vertex 12.382700 47.617321 0.200000
vertex -33.927410 50.000000 0.200000
endloop
endfacet
facet normal 0.000000 0.000000 1.000000
outer loop
vertex -33.927410 50.000000 0.200000
vertex 9.434486 37.898399 0.200000
vertex 9.227497 40.000011 0.200000
endloop
endfacet
facet normal 0.000000 -0.000000 1.000000
outer loop
vertex -33.927410 50.000000 0.200000
vertex 9.227497 40.000011 0.200000
vertex 9.434490 42.101624 0.200000
endloop
endfacet
facet normal 0.000000 -0.000000 1.000000
outer loop
vertex 10.047510 44.122471 0.200000
vertex 11.042998 45.984894 0.200000
vertex -33.927410 50.000000 0.200000
endloop
endfacet
facet normal 0.000000 -0.000000 1.000000
outer loop
vertex 9.434490 42.101624 0.200000
vertex 10.047510 44.122471 0.200000
vertex -33.927410 50.000000 0.200000
endloop
endfacet
facet normal 0.000000 0.000000 1.000000
outer loop
vertex -33.927410 40.830193 0.200000
vertex -50.000000 40.830196 0.200000
vertex -50.000000 22.000004 0.200000
endloop
endfacet
facet normal 0.000000 0.000000 1.000000
outer loop
vertex 6.999996 30.999998 0.200000
vertex -33.927410 50.000000 0.200000
vertex -33.927410 40.830193 0.200000
endloop
endfacet
facet normal 0.000000 0.000000 1.000000
outer loop
vertex -33.000000 -38.000000 0.200000
vertex -23.000002 -29.000002 0.200000
vertex -23.000002 30.999998 0.200000
endloop
endfacet
facet normal 0.000000 0.000000 1.000000
outer loop
vertex -23.000002 30.999998 0.200000
vertex 6.999996 30.999998 0.200000
vertex -33.927410 40.830193 0.200000
endloop
endfacet
facet normal -0.000000 0.000000 1.000000
outer loop
vertex -33.927410 40.830193 0.200000
vertex -50.000000 22.000004 0.200000
vertex -33.000000 22.000000 0.200000
endloop
endfacet
facet normal -0.000000 0.000000 1.000000
outer loop
vertex -33.000000 22.000000 0.200000
vertex -33.000000 -38.000000 0.200000
vertex -23.000002 30.999998 0.200000
endloop
endfacet
facet normal 0.000000 0.000000 1.000000
outer loop
vertex -33.927410 40.830193 0.200000
vertex -33.000000 22.000000 0.200000
vertex -23.000002 30.999998 0.200000
endloop
endfacet
facet normal 1.000000 0.000000 0.000000
outer loop
vertex 31.357088 -31.777060 -0.200000
vertex 31.357088 -31.777060 0.200000
vertex 31.357092 -50.000000 0.200000
endloop
endfacet
facet normal 1.000000 0.000000 0.000000
outer loop
vertex 31.357092 -50.000000 0.200000
vertex 31.357092 -50.000000 -0.200000
vertex 31.357088 -31.777060 -0.200000
endloop
endfacet
facet normal -1.000000 0.000000 0.000000
outer loop
vertex -33.927410 40.830193 -0.200000
vertex -33.927410 40.830193 0.200000
vertex -33.927410 50.000000 0.200000
endloop
endfacet
facet normal -1.000000 0.000000 0.000000
outer loop
vertex -33.927410 50.000000 0.200000
vertex -33.927410 50.000000 -0.200000
vertex -33.927410 40.830193 -0.200000
endloop
endfacet
facet normal 0.000000 -1.000000 0.000000
outer loop
vertex 31.357088 -31.777060 0.200000
vertex 31.357088 -31.777060 -0.200000
vertex 50.000000 -31.777060 -0.200000
endloop
endfacet
facet normal 0.000000 -1.000000 0.000000
outer loop
vertex 50.000000 -31.777060 -0.200000
vertex 50.000000 -31.777060 0.200000
vertex 31.357088 -31.777060 0.200000
endloop
endfacet
facet normal 0.000000 1.000000 0.000000
outer loop
vertex -33.927410 40.830193 0.200000
vertex -33.927410 40.830193 -0.200000
vertex -50.000000 40.830196 -0.200000
endloop
endfacet
facet normal 0.000000 1.000000 0.000000
outer loop
vertex -50.000000 40.830196 -0.200000
vertex -50.000000 40.830196 0.200000
vertex -33.927410 40.830193 0.200000
endloop
endfacet
facet normal -1.000000 0.000000 0.000000
outer loop
vertex -33.000000 -38.000000 -0.200000
vertex -33.000000 -38.000000 0.200000
vertex -33.000000 22.000000 0.200000
endloop
endfacet
facet normal -1.000000 0.000000 0.000000
outer loop
vertex -33.000000 22.000000 0.200000
vertex -33.000000 22.000000 -0.200000
vertex -33.000000 -38.000000 -0.200000
endloop
endfacet
facet normal 1.000000 0.000000 0.000000
outer loop
vertex -23.000002 30.999998 -0.200000
vertex -23.000002 30.999998 0.200000
vertex -23.000002 -29.000002 0.200000
endloop
endfacet
facet normal 1.000000 0.000000 0.000000
outer loop
vertex -23.000002 -29.000002 0.200000
vertex -23.000002 -29.000002 -0.200000
vertex -23.000002 30.999998 -0.200000
endloop
endfacet
facet normal -1.000000 0.000000 0.000000
outer loop
vertex -50.000000 22.000004 -0.200000
vertex -50.000000 22.000004 0.200000
vertex -50.000000 40.830196 0.200000
endloop
endfacet
facet normal -1.000000 0.000000 0.000000
outer loop
vertex -50.000000 40.830196 0.200000
vertex -50.000000 40.830196 -0.200000
vertex -50.000000 22.000004 -0.200000
endloop
endfacet
facet normal 0.000000 1.000000 0.000000
outer loop
vertex -23.000002 -29.000002 -0.200000
vertex -23.000002 -29.000002 0.200000
vertex 6.999996 -29.000002 0.200000
endloop
endfacet
facet normal 0.000000 1.000000 0.000000
outer loop
vertex 6.999996 -29.000002 0.200000
vertex 6.999996 -29.000002 -0.200000
vertex -23.000002 -29.000002 -0.200000
endloop
endfacet
facet normal 0.000000 -1.000000 0.000000
outer loop
vertex 6.999996 30.999998 -0.200000
vertex 6.999996 30.999998 0.200000
vertex -23.000002 30.999998 0.200000
endloop
endfacet
facet normal 0.000000 -1.000000 0.000000
outer loop
vertex -23.000002 30.999998 0.200000
vertex -23.000002 30.999998 -0.200000
vertex 6.999996 30.999998 -0.200000
endloop
endfacet
facet normal 0.000000 1.000000 0.000000
outer loop
vertex 19.357094 -5.777055 -0.200000
vertex 19.357094 -5.777055 0.200000
vertex 39.357086 -5.777055 0.200000
endloop
endfacet
facet normal 0.000000 1.000000 0.000000
outer loop
vertex 39.357086 -5.777055 0.200000
vertex 39.357086 -5.777055 -0.200000
vertex 19.357094 -5.777055 -0.200000
endloop
endfacet
facet normal -1.000000 0.000000 0.000000
outer loop
vertex 39.357086 -5.777055 -0.200000
vertex 39.357086 -5.777055 0.200000
vertex 39.357086 14.222944 0.200000
endloop
endfacet
facet normal -1.000000 0.000000 0.000000
outer loop
vertex 39.357086 14.222944 0.200000
vertex 39.357086 14.222944 -0.200000
vertex 39.357086 -5.777055 -0.200000
endloop
endfacet
facet normal -0.000000 -1.000000 0.000000
outer loop
vertex -33.000000 22.000000 -0.200000
vertex -33.000000 22.000000 0.200000
vertex -50.000000 22.000004 0.200000
endloop
endfacet
facet normal -0.000000 -1.000000 0.000000
outer loop
vertex -50.000000 22.000004 0.200000
vertex -50.000000 22.000004 -0.200000
vertex -33.000000 22.000000 -0.200000
endloop
endfacet
facet normal 0.000000 0.000000 -1.000000
outer loop
vertex -50.000000 22.000004 -0.200000
vertex -50.000000 40.830196 -0.200000
vertex -33.927410 40.830193 -0.200000
endloop
endfacet
facet normal 0.000000 0.000000 -1.000000
outer loop
vertex 10.906028 45.728638 -0.200000
vertex -33.927410 40.830193 -0.200000
vertex -33.927410 50.000000 -0.200000
endloop
endfacet
facet normal 0.000000 -0.000004 -1.000000
outer loop
vertex -33.927410 50.000000 -0.200000
vertex 16.034147 50.000000 -0.200000
vertex 15.877556 49.952499 -0.200000
endloop
endfacet
facet normal 0.000000 -0.000000 -1.000000
outer loop
vertex -33.927410 50.000000 -0.200000
vertex 15.877556 49.952499 -0.200000
vertex 14.015130 48.957016 -0.200000
endloop
endfacet
facet normal 0.000000 0.000001 -1.000000
outer loop
vertex 11.042998 45.984894 -0.200000
vertex 10.906028 45.728638 -0.200000
vertex -33.927410 50.000000 -0.200000
endloop
endfacet
facet normal 0.000000 -0.000000 -1.000000
outer loop
vertex -33.927410 50.000000 -0.200000
vertex 14.015130 48.957016 -0.200000
vertex 12.382700 47.617321 -0.200000
endloop
endfacet
facet normal 0.000000 -0.000000 -1.000000
outer loop
vertex -33.927410 50.000000 -0.200000
vertex 12.382700 47.617321 -0.200000
vertex 11.042998 45.984894 -0.200000
endloop
endfacet
facet normal -0.000000 0.000000 -1.000000
outer loop
vertex 50.000000 50.000000 -0.200000
vertex 50.000000 -31.777060 -0.200000
vertex 39.357086 -5.777055 -0.200000
endloop
endfacet
facet normal 0.000000 0.000000 -1.000000
outer loop
vertex 50.000000 50.000000 -0.200000
vertex 39.357086 -5.777055 -0.200000
vertex 39.357086 14.222944 -0.200000
endloop
endfacet
facet normal -0.000000 0.000000 -1.000000
outer loop
vertex -23.000002 30.999998 -0.200000
vertex -50.000000 22.000004 -0.200000
vertex -33.927410 40.830193 -0.200000
endloop
endfacet
facet normal 0.000000 0.000000 -1.000000
outer loop
vertex 19.357094 14.222944 -0.200000
vertex 6.999993 6.999993 -0.200000
vertex 6.999996 30.999998 -0.200000
endloop
endfacet
facet normal 0.000000 0.000000 -1.000000
outer loop
vertex 6.999996 30.999998 -0.200000
vertex -23.000002 30.999998 -0.200000
vertex -33.927410 40.830193 -0.200000
endloop
endfacet
facet normal 0.000000 0.000000 -1.000000
outer loop
vertex 50.000000 50.000000 -0.200000
vertex 39.357086 14.222944 -0.200000
vertex 19.357094 14.222944 -0.200000
endloop
endfacet
facet normal 0.000000 0.000000 -1.000000
outer loop
vertex 11.782997 33.113419 -0.200000
vertex 6.999996 30.999998 -0.200000
vertex -33.927410 40.830193 -0.200000
endloop
endfacet
facet normal 0.000000 -0.000000 -1.000000
outer loop
vertex -33.927410 40.830193 -0.200000
vertex 10.906028 45.728638 -0.200000
vertex 10.047510 44.122471 -0.200000
endloop
endfacet
facet normal 0.000000 -0.000000 -1.000000
outer loop
vertex -33.927410 40.830193 -0.200000
vertex 10.047510 44.122471 -0.200000
vertex 9.434490 42.101624 -0.200000
endloop
endfacet
facet normal 0.000000 0.000000 -1.000000
outer loop
vertex 11.042987 34.015125 -0.200000
vertex 11.782997 33.113419 -0.200000
vertex -33.927410 40.830193 -0.200000
endloop
endfacet
facet normal 0.000000 0.000000 -1.000000
outer loop
vertex 10.047502 35.877548 -0.200000
vertex 11.042987 34.015125 -0.200000
vertex -33.927410 40.830193 -0.200000
endloop
endfacet
facet normal 0.000000 -0.000000 -1.000000
outer loop
vertex -33.927410 40.830193 -0.200000
vertex 9.434490 42.101624 -0.200000
vertex 9.227497 40.000011 -0.200000
endloop
endfacet
facet normal 0.000000 0.000000 -1.000000
outer loop
vertex 9.434486 37.898399 -0.200000
vertex 10.047502 35.877548 -0.200000
vertex -33.927410 40.830193 -0.200000
endloop
endfacet
facet normal 0.000000 0.000000 -1.000000
outer loop
vertex -33.927410 40.830193 -0.200000
vertex 9.227497 40.000011 -0.200000
vertex 9.434486 37.898399 -0.200000
endloop
endfacet
facet normal -0.000000 0.000000 -1.000000
outer loop
vertex 19.357094 14.222944 -0.200000
vertex 6.999996 30.999998 -0.200000
vertex 11.782997 33.113419 -0.200000
endloop
endfacet
facet normal 0.000004 0.000001 -1.000000
outer loop
vertex 19.357094 14.222944 -0.200000
vertex 11.782997 33.113419 -0.200000
vertex 12.382685 32.382694 -0.199999
endloop
endfacet
facet normal 0.000000 -0.000001 -1.000000
outer loop
vertex 30.772503 40.000000 -0.199999
vertex 30.630537 41.441399 -0.200000
vertex 50.000000 50.000000 -0.200000
endloop
endfacet
facet normal -0.000000 0.000000 -1.000000
outer loop
vertex 30.565514 37.898392 -0.199999
vertex 30.772503 40.000000 -0.199999
vertex 50.000000 50.000000 -0.200000
endloop
endfacet
facet normal 0.000000 0.000000 -1.000000
outer loop
vertex 19.357094 14.222944 -0.200000
vertex 12.382685 32.382694 -0.199999
vertex 14.015113 31.042995 -0.199999
endloop
endfacet
facet normal 0.000000 0.000000 -1.000000
outer loop
vertex 19.357094 14.222944 -0.200000
vertex 14.015113 31.042995 -0.199999
vertex 15.877537 30.047508 -0.199999
endloop
endfacet
facet normal -0.000000 0.000000 -1.000000
outer loop
vertex 29.952496 35.877544 -0.199999
vertex 30.565514 37.898392 -0.199999
vertex 50.000000 50.000000 -0.200000
endloop
endfacet
facet normal -0.000000 0.000000 -1.000000
outer loop
vertex 28.957008 34.015118 -0.199999
vertex 29.952496 35.877544 -0.199999
vertex 50.000000 50.000000 -0.200000
endloop
endfacet
facet normal 0.000000 0.000000 -1.000000
outer loop
vertex 19.357094 14.222944 -0.200000
vertex 15.877537 30.047508 -0.199999
vertex 17.898384 29.434488 -0.199999
endloop
endfacet
facet normal 0.000000 0.000000 -1.000000
outer loop
vertex 19.357094 14.222944 -0.200000
vertex 17.898384 29.434488 -0.199999
vertex 19.999996 29.227497 -0.199999
endloop
endfacet
facet normal -0.000000 0.000000 -1.000000
outer loop
vertex 28.957008 34.015118 -0.199999
vertex 50.000000 50.000000 -0.200000
vertex 19.357094 14.222944 -0.200000
endloop
endfacet
facet normal -0.000000 0.000000 -1.000000
outer loop
vertex 27.617310 32.382690 -0.199999
vertex 28.957008 34.015118 -0.199999
vertex 19.357094 14.222944 -0.200000
endloop
endfacet
facet normal -0.000000 0.000000 -1.000000
outer loop
vertex 19.357094 14.222944 -0.200000
vertex 19.999996 29.227497 -0.199999
vertex 22.101608 29.434486 -0.199999
endloop
endfacet
facet normal -0.000000 0.000000 -1.000000
outer loop
vertex 19.357094 14.222944 -0.200000
vertex 22.101608 29.434486 -0.199999
vertex 24.122456 30.047504 -0.199999
endloop
endfacet
facet normal -0.000000 0.000000 -1.000000
outer loop
vertex 25.984882 31.042992 -0.199999
vertex 27.617310 32.382690 -0.199999
vertex 19.357094 14.222944 -0.200000
endloop
endfacet
facet normal -0.000000 0.000000 -1.000000
outer loop
vertex 19.357094 14.222944 -0.200000
vertex 24.122456 30.047504 -0.199999
vertex 25.984882 31.042992 -0.199999
endloop
endfacet
facet normal 0.000000 0.000000 -1.000000
outer loop
vertex -33.000000 22.000000 -0.200000
vertex -50.000000 22.000004 -0.200000
vertex -23.000002 30.999998 -0.200000
endloop
endfacet
facet normal -0.000000 0.000000 -1.000000
outer loop
vertex -33.000000 22.000000 -0.200000
vertex -23.000002 30.999998 -0.200000
vertex -23.000002 -29.000002 -0.200000
endloop
endfacet
facet normal 0.000000 0.000000 -1.000000
outer loop
vertex -50.000000 -50.000000 -0.200000
vertex -50.000000 -38.000000 -0.200000
vertex -33.000000 -38.000000 -0.200000
endloop
endfacet
facet normal 0.000000 0.000000 -1.000000
outer loop
vertex -33.000000 -38.000000 -0.200000
vertex -33.000000 22.000000 -0.200000
vertex -23.000002 -29.000002 -0.200000
endloop
endfacet
facet normal 0.000000 0.000000 -1.000000
outer loop
vertex 6.999996 -29.000002 -0.200000
vertex 6.999993 6.999993 -0.200000
vertex 19.357094 14.222944 -0.200000
endloop
endfacet
facet normal 0.000000 0.000000 -1.000000
outer loop
vertex -33.000000 -38.000000 -0.200000
vertex -23.000002 -29.000002 -0.200000
vertex 6.999996 -29.000002 -0.200000
endloop
endfacet
facet normal 0.000000 0.000000 -1.000000
outer loop
vertex 31.357092 -50.000000 -0.200000
vertex -50.000000 -50.000000 -0.200000
vertex -33.000000 -38.000000 -0.200000
endloop
endfacet
facet normal 0.000000 0.000000 -1.000000
outer loop
vertex 39.357086 -5.777055 -0.200000
vertex 50.000000 -31.777060 -0.200000
vertex 31.357088 -31.777060 -0.200000
endloop
endfacet
facet normal 0.000000 0.000000 -1.000000
outer loop
vertex 31.357088 -31.777060 -0.200000
vertex 31.357092 -50.000000 -0.200000
vertex -33.000000 -38.000000 -0.200000
endloop
endfacet
facet normal 0.000000 0.000000 -1.000000
outer loop
vertex 6.999996 -29.000002 -0.200000
vertex 19.357094 14.222944 -0.200000
vertex 19.357094 -5.777055 -0.200000
endloop
endfacet
facet normal -0.000000 0.000000 -1.000000
outer loop
vertex 31.357088 -31.777060 -0.200000
vertex -33.000000 -38.000000 -0.200000
vertex 6.999996 -29.000002 -0.200000
endloop
endfacet
facet normal 0.000000 0.000000 -1.000000
outer loop
vertex 19.357094 -5.777055 -0.200000
vertex 39.357086 -5.777055 -0.200000
vertex 31.357088 -31.777060 -0.200000
endloop
endfacet
facet normal 0.000000 0.000000 -1.000000
outer loop
vertex 6.999996 -29.000002 -0.200000
vertex 19.357094 -5.777055 -0.200000
vertex 31.357088 -31.777060 -0.200000
endloop
endfacet
facet normal 0.000000 -1.000000 0.000000
outer loop
vertex -50.000000 -50.000000 0.200000
vertex -50.000000 -50.000000 -0.200000
vertex 31.357092 -50.000000 -0.200000
endloop
endfacet
facet normal 0.000000 -1.000000 0.000000
outer loop
vertex 31.357092 -50.000000 -0.200000
vertex 31.357092 -50.000000 0.200000
vertex -50.000000 -50.000000 0.200000
endloop
endfacet
facet normal 0.000000 1.000000 0.000000
outer loop
vertex -33.000000 -38.000000 0.200000
vertex -33.000000 -38.000000 -0.200000
vertex -50.000000 -38.000000 -0.200000
endloop
endfacet
facet normal 0.000000 1.000000 0.000000
outer loop
vertex -50.000000 -38.000000 -0.200000
vertex -50.000000 -38.000000 0.200000
vertex -33.000000 -38.000000 0.200000
endloop
endfacet
facet normal -0.000000 0.000000 1.000000
outer loop
vertex 6.999996 30.999998 0.200000
vertex 6.999993 -6.999993 0.200000
vertex 19.357094 -5.777055 0.200000
endloop
endfacet
facet normal 0.000000 0.000000 1.000000
outer loop
vertex 19.357094 14.222944 0.200000
vertex 39.357086 14.222944 0.200000
vertex 50.000000 50.000000 0.200000
endloop
endfacet
facet normal 0.000000 0.000000 1.000000
outer loop
vertex 6.999996 30.999998 0.200000
vertex 19.357094 -5.777055 0.200000
vertex 19.357094 14.222944 0.200000
endloop
endfacet
facet normal 0.000000 0.000000 1.000000
outer loop
vertex 11.782997 33.113419 0.200000
vertex 6.999996 30.999998 0.200000
vertex 19.357094 14.222944 0.200000
endloop
endfacet
facet normal -0.000000 0.000001 1.000000
outer loop
vertex 50.000000 50.000000 0.200000
vertex 30.630537 41.441399 0.200000
vertex 30.772503 40.000000 0.200001
endloop
endfacet
facet normal 0.000000 -0.000000 1.000000
outer loop
vertex 50.000000 50.000000 0.200000
vertex 30.772503 40.000000 0.200001
vertex 30.565514 37.898392 0.200001
endloop
endfacet
facet normal -0.000002 -0.000001 1.000000
outer loop
vertex 12.382685 32.382694 0.200001
vertex 11.782997 33.113419 0.200000
vertex 19.357094 14.222944 0.200000
endloop
endfacet
facet normal -0.000000 -0.000000 1.000000
outer loop
vertex 14.015113 31.042995 0.200001
vertex 12.382685 32.382694 0.200001
vertex 19.357094 14.222944 0.200000
endloop
endfacet
facet normal 0.000000 -0.000000 1.000000
outer loop
vertex 50.000000 50.000000 0.200000
vertex 30.565514 37.898392 0.200001
vertex 29.952496 35.877544 0.200001
endloop
endfacet
facet normal 0.000000 -0.000000 1.000000
outer loop
vertex 50.000000 50.000000 0.200000
vertex 29.952496 35.877544 0.200001
vertex 28.957008 34.015118 0.200001
endloop
endfacet
facet normal -0.000000 -0.000000 1.000000
outer loop
vertex 15.877537 30.047508 0.200001
vertex 14.015113 31.042995 0.200001
vertex 19.357094 14.222944 0.200000
endloop
endfacet
facet normal -0.000000 -0.000000 1.000000
outer loop
vertex 17.898384 29.434488 0.200001
vertex 15.877537 30.047508 0.200001
vertex 19.357094 14.222944 0.200000
endloop
endfacet
facet normal 0.000000 -0.000000 1.000000
outer loop
vertex 19.357094 14.222944 0.200000
vertex 50.000000 50.000000 0.200000
vertex 28.957008 34.015118 0.200001
endloop
endfacet
facet normal 0.000000 -0.000000 1.000000
outer loop
vertex 19.357094 14.222944 0.200000
vertex 28.957008 34.015118 0.200001
vertex 27.617310 32.382690 0.200001
endloop
endfacet
facet normal 0.000000 -0.000000 1.000000
outer loop
vertex 19.999996 29.227497 0.200001
vertex 17.898384 29.434488 0.200001
vertex 19.357094 14.222944 0.200000
endloop
endfacet
facet normal 0.000000 -0.000000 1.000000
outer loop
vertex 22.101608 29.434486 0.200001
vertex 19.999996 29.227497 0.200001
vertex 19.357094 14.222944 0.200000
endloop
endfacet
facet normal 0.000000 -0.000000 1.000000
outer loop
vertex 19.357094 14.222944 0.200000
vertex 27.617310 32.382690 0.200001
vertex 25.984882 31.042992 0.200001
endloop
endfacet
facet normal 0.000000 -0.000000 1.000000
outer loop
vertex 24.122456 30.047504 0.200001
vertex 22.101608 29.434486 0.200001
vertex 19.357094 14.222944 0.200000
endloop
endfacet
facet normal 0.000000 -0.000000 1.000000
outer loop
vertex 19.357094 14.222944 0.200000
vertex 25.984882 31.042992 0.200001
vertex 24.122456 30.047504 0.200001
endloop
endfacet
facet normal 0.000000 0.000000 1.000000
outer loop
vertex 50.000000 50.000000 0.200000
vertex 39.357086 14.222944 0.200000
vertex 39.357086 -5.777055 0.200000
endloop
endfacet
facet normal 0.000000 0.000000 1.000000
outer loop
vertex 39.357086 -5.777055 0.200000
vertex 19.357094 -5.777055 0.200000
vertex 6.999993 -6.999993 0.200000
endloop
endfacet
facet normal 0.000000 0.000000 1.000000
outer loop
vertex 6.999996 -29.000002 0.200000
vertex -23.000002 -29.000002 0.200000
vertex -33.000000 -38.000000 0.200000
endloop
endfacet
facet normal 0.000000 0.000000 1.000000
outer loop
vertex 39.357086 -5.777055 0.200000
vertex 6.999993 -6.999993 0.200000
vertex 6.999996 -29.000002 0.200000
endloop
endfacet
facet normal -0.000000 0.000000 1.000000
outer loop
vertex 50.000000 -31.777060 0.200000
vertex 50.000000 50.000000 0.200000
vertex 39.357086 -5.777055 0.200000
endloop
endfacet
facet normal 0.000000 0.000000 1.000000
outer loop
vertex -50.000000 -50.000000 0.200000
vertex 31.357092 -50.000000 0.200000
vertex 31.357088 -31.777060 0.200000
endloop
endfacet
facet normal 0.000000 0.000000 1.000000
outer loop
vertex 31.357088 -31.777060 0.200000
vertex 50.000000 -31.777060 0.200000
vertex 39.357086 -5.777055 0.200000
endloop
endfacet
facet normal 0.000000 0.000000 1.000000
outer loop
vertex 31.357088 -31.777060 0.200000
vertex 39.357086 -5.777055 0.200000
vertex 6.999996 -29.000002 0.200000
endloop
endfacet
facet normal 0.000000 0.000000 1.000000
outer loop
vertex -33.000000 -38.000000 0.200000
vertex -50.000000 -38.000000 0.200000
vertex -50.000000 -50.000000 0.200000
endloop
endfacet
facet normal -0.000000 0.000000 1.000000
outer loop
vertex 31.357088 -31.777060 0.200000
vertex 6.999996 -29.000002 0.200000
vertex -33.000000 -38.000000 0.200000
endloop
endfacet
facet normal 0.000000 0.000000 1.000000
outer loop
vertex -33.000000 -38.000000 0.200000
vertex -50.000000 -50.000000 0.200000
vertex 31.357088 -31.777060 0.200000
endloop
endfacet
facet normal -1.000000 -0.000000 0.000000
outer loop
vertex 6.999993 6.999993 -0.200000
vertex 6.999996 -29.000002 -0.200000
vertex 6.999996 -29.000002 0.200000
endloop
endfacet
facet normal -1.000000 0.000000 0.000000
outer loop
vertex 6.999993 -6.999993 0.200000
vertex 6.999996 30.999998 0.200000
vertex 6.999996 30.999998 -0.200000
endloop
endfacet
facet normal -1.000000 -0.000000 -0.000005
outer loop
vertex 6.999993 6.999993 -0.200000
vertex 6.999996 -29.000002 0.200000
vertex 6.999993 -6.999993 0.200000
endloop
endfacet
facet normal -1.000000 0.000000 0.000005
outer loop
vertex 6.999993 -6.999993 0.200000
vertex 6.999996 30.999998 -0.200000
vertex 6.999993 6.999993 -0.200000
endloop
endfacet
facet normal 0.000000 1.000000 0.000000
outer loop
vertex -33.927410 50.000000 -0.200000
vertex -33.927410 50.000000 0.200000
vertex 16.034147 50.000000 0.200000
endloop
endfacet
facet normal 0.000000 1.000000 0.000000
outer loop
vertex 16.034147 50.000000 0.200000
vertex 16.034147 50.000000 0.038118
vertex -33.927410 50.000000 -0.200000
endloop
endfacet
facet normal 0.000000 1.000000 0.000000
outer loop
vertex 50.000000 50.000000 0.200000
vertex 50.000000 50.000000 -0.200000
vertex 23.965862 50.000000 -0.200000
endloop
endfacet
facet normal 0.000000 1.000000 0.000000
outer loop
vertex 23.965862 50.000000 -0.200000
vertex 23.965862 50.000000 0.075921
vertex 50.000000 50.000000 0.200000
endloop
endfacet
facet normal 1.000000 0.000000 0.000000
outer loop
vertex 19.357094 14.222944 -0.200000
vertex 19.357094 14.222944 0.200000
vertex 19.357094 -5.777055 0.200000
endloop
endfacet
facet normal 1.000000 0.000000 0.000000
outer loop
vertex 19.357094 -5.777055 0.200000
vertex 19.357094 -5.777055 -0.200000
vertex 19.357094 14.222944 -0.200000
endloop
endfacet
facet normal 0.000000 -1.000000 0.000000
outer loop
vertex 39.357086 14.222944 -0.200000
vertex 39.357086 14.222944 0.200000
vertex 19.357094 14.222944 0.200000
endloop
endfacet
facet normal 0.000000 -1.000000 0.000000
outer loop
vertex 19.357094 14.222944 0.200000
vertex 19.357094 14.222944 -0.200000
vertex 39.357086 14.222944 -0.200000
endloop
endfacet
facet normal -0.995185 0.098017 0.000000
outer loop
vertex 30.565514 37.898392 -0.199999
vertex 30.565514 37.898392 0.200001
vertex 30.772503 40.000000 0.200001
endloop
endfacet
facet normal -0.995185 0.098017 0.000000
outer loop
vertex 30.772503 40.000000 0.200001
vertex 30.772503 40.000000 -0.199999
vertex 30.565514 37.898392 -0.199999
endloop
endfacet
facet normal -0.773010 0.634394 0.000000
outer loop
vertex 27.617310 32.382690 -0.199999
vertex 27.617310 32.382690 0.200001
vertex 28.957008 34.015118 0.200001
endloop
endfacet
facet normal -0.773010 0.634394 0.000000
outer loop
vertex 28.957008 34.015118 0.200001
vertex 28.957008 34.015118 -0.199999
vertex 27.617310 32.382690 -0.199999
endloop
endfacet
facet normal -0.881921 0.471397 0.000000
outer loop
vertex 28.957008 34.015118 -0.199999
vertex 28.957008 34.015118 0.200001
vertex 29.952496 35.877544 0.200001
endloop
endfacet
facet normal -0.881922 0.471395 0.000000
outer loop
vertex 29.952496 35.877544 0.200001
vertex 29.952496 35.877544 -0.199999
vertex 28.957008 34.015118 -0.199999
endloop
endfacet
facet normal 0.995185 -0.098018 0.000000
outer loop
vertex 9.434490 42.101624 -0.200000
vertex 9.434490 42.101624 0.200000
vertex 9.227497 40.000011 0.200000
endloop
endfacet
facet normal 0.995185 -0.098019 0.000000
outer loop
vertex 9.227497 40.000011 0.200000
vertex 9.227497 40.000011 -0.200000
vertex 9.434490 42.101624 -0.200000
endloop
endfacet
facet normal -0.956940 -0.290287 0.000000
outer loop
vertex 30.565512 42.101612 -0.200000
vertex 30.565512 42.101612 0.200000
vertex 29.952496 44.122459 0.200000
endloop
endfacet
facet normal -0.956941 -0.290283 0.000000
outer loop
vertex 29.952496 44.122459 0.200000
vertex 29.952496 44.122459 -0.200000
vertex 30.565512 42.101612 -0.200000
endloop
endfacet
facet normal -0.995184 -0.098020 0.000000
outer loop
vertex 30.630537 41.441399 -0.200000
vertex 30.772503 40.000000 -0.199999
vertex 30.772503 40.000000 0.200001
endloop
endfacet
facet normal -0.995185 -0.098012 0.000000
outer loop
vertex 30.630537 41.441399 0.200000
vertex 30.565512 42.101612 0.200000
vertex 30.565512 42.101612 -0.200000
endloop
endfacet
facet normal -0.995185 -0.098015 0.000000
outer loop
vertex 30.630537 41.441399 -0.200000
vertex 30.772503 40.000000 0.200001
vertex 30.630537 41.441399 0.200000
endloop
endfacet
facet normal -0.995184 -0.098024 0.000000
outer loop
vertex 30.630537 41.441399 0.200000
vertex 30.565512 42.101612 -0.200000
vertex 30.630537 41.441399 -0.200000
endloop
endfacet
facet normal -0.773010 -0.634393 0.000000
outer loop
vertex 27.664621 47.559666 -0.200000
vertex 28.957008 45.984882 -0.200000
vertex 28.957008 45.984882 0.200000
endloop
endfacet
facet normal -0.773010 -0.634394 0.000000
outer loop
vertex 28.957008 45.984882 0.200000
vertex 27.617310 47.617310 0.200000
vertex 27.617310 47.617310 -0.200000
endloop
endfacet
facet normal -0.773003 -0.634402 -0.000560
outer loop
vertex 28.957008 45.984882 0.200000
vertex 27.617310 47.617310 -0.200000
vertex 27.664621 47.559666 -0.200000
endloop
endfacet
facet normal 0.098017 0.995185 0.000000
outer loop
vertex 17.898384 29.434488 -0.199999
vertex 17.898384 29.434488 0.200001
vertex 19.999996 29.227497 0.200001
endloop
endfacet
facet normal 0.098017 0.995185 0.000000
outer loop
vertex 19.999996 29.227497 0.200001
vertex 19.999996 29.227497 -0.199999
vertex 17.898384 29.434488 -0.199999
endloop
endfacet
facet normal 0.881921 -0.471396 0.000000
outer loop
vertex 10.906028 45.728638 -0.200000
vertex 11.042998 45.984894 -0.200000
vertex 11.042998 45.984894 0.200000
endloop
endfacet
facet normal 0.881921 -0.471398 0.000000
outer loop
vertex 11.042998 45.984894 0.200000
vertex 10.047510 44.122471 0.200000
vertex 10.047510 44.122471 -0.200000
endloop
endfacet
facet normal 0.881921 -0.471398 0.000010
outer loop
vertex 11.042998 45.984894 0.200000
vertex 10.047510 44.122471 -0.200000
vertex 10.906028 45.728638 -0.200000
endloop
endfacet
facet normal -0.098016 0.995185 0.000000
outer loop
vertex 19.999996 29.227497 -0.199999
vertex 19.999996 29.227497 0.200001
vertex 22.101608 29.434486 0.200001
endloop
endfacet
facet normal -0.098016 0.995185 0.000000
outer loop
vertex 22.101608 29.434486 0.200001
vertex 22.101608 29.434486 -0.199999
vertex 19.999996 29.227497 -0.199999
endloop
endfacet
facet normal 0.290276 -0.956943 0.000000
outer loop
vertex 16.034147 50.000000 0.200000
vertex 15.877556 49.952499 0.200000
vertex 15.877556 49.952499 -0.200000
endloop
endfacet
facet normal 0.290280 -0.956942 0.000000
outer loop
vertex 15.877556 49.952499 -0.200000
vertex 16.034147 50.000000 -0.200000
vertex 16.034147 50.000000 0.038118
endloop
endfacet
facet normal 0.290282 -0.956941 0.000000
outer loop
vertex 15.877556 49.952499 -0.200000
vertex 16.034147 50.000000 0.038118
vertex 16.034147 50.000000 0.200000
endloop
endfacet
facet normal -0.634394 -0.773010 0.000000
outer loop
vertex 27.617310 47.617310 -0.200000
vertex 27.617310 47.617310 0.200000
vertex 25.984882 48.957008 0.200000
endloop
endfacet
facet normal -0.634393 -0.773011 0.000000
outer loop
vertex 25.984882 48.957008 0.200000
vertex 25.984882 48.957008 -0.200000
vertex 27.617310 47.617310 -0.200000
endloop
endfacet
facet normal 0.000000 1.000000 0.000000
outer loop
vertex 16.034147 50.000000 0.038118
vertex 16.034147 50.000000 -0.200000
vertex -33.927410 50.000000 -0.200000
endloop
endfacet
facet normal 0.471397 0.881921 0.000000
outer loop
vertex 14.015113 31.042995 -0.199999
vertex 14.015113 31.042995 0.200001
vertex 15.877537 30.047508 0.200001
endloop
endfacet
facet normal 0.471397 0.881921 0.000000
outer loop
vertex 15.877537 30.047508 0.200001
vertex 15.877537 30.047508 -0.199999
vertex 14.015113 31.042995 -0.199999
endloop
endfacet
facet normal -0.471397 -0.881921 0.000000
outer loop
vertex 25.984882 48.957008 -0.200000
vertex 25.984882 48.957008 0.200000
vertex 24.122459 49.952496 0.200000
endloop
endfacet
facet normal -0.471397 -0.881921 0.000000
outer loop
vertex 24.122459 49.952496 0.200000
vertex 24.122459 49.952496 -0.200000
vertex 25.984882 48.957008 -0.200000
endloop
endfacet
facet normal -0.634393 0.773011 0.000000
outer loop
vertex 25.984882 31.042992 -0.199999
vertex 25.984882 31.042992 0.200001
vertex 27.617310 32.382690 0.200001
endloop
endfacet
facet normal -0.634394 0.773010 0.000000
outer loop
vertex 27.617310 32.382690 0.200001
vertex 27.617310 32.382690 -0.199999
vertex 25.984882 31.042992 -0.199999
endloop
endfacet
facet normal 0.634392 -0.773012 0.000000
outer loop
vertex 14.015130 48.957016 -0.200000
vertex 14.015130 48.957016 0.200000
vertex 12.382700 47.617321 0.200000
endloop
endfacet
facet normal 0.634392 -0.773012 0.000000
outer loop
vertex 12.382700 47.617321 0.200000
vertex 12.382700 47.617321 -0.200000
vertex 14.015130 48.957016 -0.200000
endloop
endfacet
facet normal 0.956940 -0.290285 0.000000
outer loop
vertex 10.047510 44.122471 -0.200000
vertex 10.047510 44.122471 0.200000
vertex 9.434490 42.101624 0.200000
endloop
endfacet
facet normal 0.956940 -0.290286 0.000000
outer loop
vertex 9.434490 42.101624 0.200000
vertex 9.434490 42.101624 -0.200000
vertex 10.047510 44.122471 -0.200000
endloop
endfacet
facet normal 0.000000 -0.000004 1.000000
outer loop
vertex 50.000000 50.000000 0.200000
vertex 23.965862 50.000000 0.200000
vertex 24.122459 49.952496 0.200000
endloop
endfacet
facet normal -0.000000 -0.000000 1.000000
outer loop
vertex 50.000000 50.000000 0.200000
vertex 24.122459 49.952496 0.200000
vertex 25.984882 48.957008 0.200000
endloop
endfacet
facet normal -0.000000 0.000000 1.000000
outer loop
vertex 30.565512 42.101612 0.200000
vertex 30.630537 41.441399 0.200000
vertex 50.000000 50.000000 0.200000
endloop
endfacet
facet normal -0.000000 -0.000000 1.000000
outer loop
vertex 29.952496 44.122459 0.200000
vertex 30.565512 42.101612 0.200000
vertex 50.000000 50.000000 0.200000
endloop
endfacet
facet normal -0.000000 -0.000000 1.000000
outer loop
vertex 50.000000 50.000000 0.200000
vertex 25.984882 48.957008 0.200000
vertex 27.617310 47.617310 0.200000
endloop
endfacet
facet normal -0.000000 -0.000000 1.000000
outer loop
vertex 28.957008 45.984882 0.200000
vertex 29.952496 44.122459 0.200000
vertex 50.000000 50.000000 0.200000
endloop
endfacet
facet normal -0.000000 -0.000000 1.000000
outer loop
vertex 27.617310 47.617310 0.200000
vertex 28.957008 45.984882 0.200000
vertex 50.000000 50.000000 0.200000
endloop
endfacet
facet normal -0.471397 0.881921 0.000000
outer loop
vertex 24.122456 30.047504 -0.199999
vertex 24.122456 30.047504 0.200001
vertex 25.984882 31.042992 0.200001
endloop
endfacet
facet normal -0.471396 0.881922 0.000000
outer loop
vertex 25.984882 31.042992 0.200001
vertex 25.984882 31.042992 -0.199999
vertex 24.122456 30.047504 -0.199999
endloop
endfacet
facet normal 0.634393 0.773010 0.000000
outer loop
vertex 12.382685 32.382694 -0.199999
vertex 12.382685 32.382694 0.200001
vertex 14.015113 31.042995 0.200001
endloop
endfacet
facet normal 0.634393 0.773011 0.000000
outer loop
vertex 14.015113 31.042995 0.200001
vertex 14.015113 31.042995 -0.199999
vertex 12.382685 32.382694 -0.199999
endloop
endfacet
facet normal 0.881921 0.471397 0.000000
outer loop
vertex 10.047502 35.877548 -0.200000
vertex 10.047502 35.877548 0.200000
vertex 11.042987 34.015125 0.200000
endloop
endfacet
facet normal 0.881922 0.471396 0.000000
outer loop
vertex 11.042987 34.015125 0.200000
vertex 11.042987 34.015125 -0.200000
vertex 10.047502 35.877548 -0.200000
endloop
endfacet
facet normal -0.881922 -0.471396 0.000000
outer loop
vertex 29.952496 44.122459 -0.200000
vertex 29.952496 44.122459 0.200000
vertex 28.957008 45.984882 0.200000
endloop
endfacet
facet normal -0.881921 -0.471398 0.000000
outer loop
vertex 28.957008 45.984882 0.200000
vertex 28.957008 45.984882 -0.200000
vertex 29.952496 44.122459 -0.200000
endloop
endfacet
facet normal 0.995185 0.098016 0.000000
outer loop
vertex 9.227497 40.000011 -0.200000
vertex 9.227497 40.000011 0.200000
vertex 9.434486 37.898399 0.200000
endloop
endfacet
facet normal 0.995185 0.098017 0.000000
outer loop
vertex 9.434486 37.898399 0.200000
vertex 9.434486 37.898399 -0.200000
vertex 9.227497 40.000011 -0.200000
endloop
endfacet
facet normal -0.000000 0.000000 -1.000000
outer loop
vertex 50.000000 50.000000 -0.200000
vertex 30.630537 41.441399 -0.200000
vertex 30.565512 42.101612 -0.200000
endloop
endfacet
facet normal -0.000000 -0.000000 -1.000000
outer loop
vertex 50.000000 50.000000 -0.200000
vertex 30.565512 42.101612 -0.200000
vertex 29.952496 44.122459 -0.200000
endloop
endfacet
facet normal 0.000000 -0.000000 -1.000000
outer loop
vertex 28.957008 45.984882 -0.200000
vertex 27.664621 47.559666 -0.200000
vertex 50.000000 50.000000 -0.200000
endloop
endfacet
facet normal -0.000000 -0.000000 -1.000000
outer loop
vertex 29.952496 44.122459 -0.200000
vertex 28.957008 45.984882 -0.200000
vertex 50.000000 50.000000 -0.200000
endloop
endfacet
facet normal -0.956940 0.290285 0.000000
outer loop
vertex 29.952496 35.877544 -0.199999
vertex 29.952496 35.877544 0.200001
vertex 30.565514 37.898392 0.200001
endloop
endfacet
facet normal -0.956940 0.290285 0.000000
outer loop
vertex 30.565514 37.898392 0.200001
vertex 30.565514 37.898392 -0.199999
vertex 29.952496 35.877544 -0.199999
endloop
endfacet
facet normal 0.290286 0.956940 0.000000
outer loop
vertex 15.877537 30.047508 -0.199999
vertex 15.877537 30.047508 0.200001
vertex 17.898384 29.434488 0.200001
endloop
endfacet
facet normal 0.290286 0.956940 0.000000
outer loop
vertex 17.898384 29.434488 0.200001
vertex 17.898384 29.434488 -0.199999
vertex 15.877537 30.047508 -0.199999
endloop
endfacet
facet normal 0.471395 -0.881922 0.000000
outer loop
vertex 15.877556 49.952499 -0.200000
vertex 15.877556 49.952499 0.200000
vertex 14.015130 48.957016 0.200000
endloop
endfacet
facet normal 0.471395 -0.881922 0.000000
outer loop
vertex 14.015130 48.957016 0.200000
vertex 14.015130 48.957016 -0.200000
vertex 15.877556 49.952499 -0.200000
endloop
endfacet
facet normal -0.290290 -0.956939 0.000000
outer loop
vertex 23.965862 50.000000 -0.200000
vertex 24.122459 49.952496 -0.200000
vertex 24.122459 49.952496 0.200000
endloop
endfacet
facet normal -0.290289 -0.956939 0.000000
outer loop
vertex 24.122459 49.952496 0.200000
vertex 23.965862 50.000000 0.200000
vertex 23.965862 50.000000 0.075921
endloop
endfacet
facet normal -0.290293 -0.956938 0.000000
outer loop
vertex 24.122459 49.952496 0.200000
vertex 23.965862 50.000000 0.075921
vertex 23.965862 50.000000 -0.200000
endloop
endfacet
facet normal -0.290285 0.956940 0.000000
outer loop
vertex 22.101608 29.434486 -0.199999
vertex 22.101608 29.434486 0.200001
vertex 24.122456 30.047504 0.200001
endloop
endfacet
facet normal -0.290285 0.956940 0.000000
outer loop
vertex 24.122456 30.047504 0.200001
vertex 24.122456 30.047504 -0.199999
vertex 22.101608 29.434486 -0.199999
endloop
endfacet
facet normal 0.956941 0.290283 0.000000
outer loop
vertex 9.434486 37.898399 -0.200000
vertex 9.434486 37.898399 0.200000
vertex 10.047502 35.877548 0.200000
endloop
endfacet
facet normal 0.956941 0.290283 0.000000
outer loop
vertex 10.047502 35.877548 0.200000
vertex 10.047502 35.877548 -0.200000
vertex 9.434486 37.898399 -0.200000
endloop
endfacet
facet normal 0.773009 -0.634395 0.000000
outer loop
vertex 12.382700 47.617321 -0.200000
vertex 12.382700 47.617321 0.200000
vertex 11.042998 45.984894 0.200000
endloop
endfacet
facet normal 0.773010 -0.634394 0.000000
outer loop
vertex 11.042998 45.984894 0.200000
vertex 11.042998 45.984894 -0.200000
vertex 12.382700 47.617321 -0.200000
endloop
endfacet
facet normal 0.000000 1.000000 0.000000
outer loop
vertex 23.965862 50.000000 0.075921
vertex 23.965862 50.000000 0.200000
vertex 50.000000 50.000000 0.200000
endloop
endfacet
facet normal -0.000000 0.000003 -1.000000
outer loop
vertex 50.000000 50.000000 -0.200000
vertex 27.664621 47.559666 -0.200000
vertex 27.617310 47.617310 -0.200000
endloop
endfacet
facet normal -0.000000 -0.000000 -1.000000
outer loop
vertex 50.000000 50.000000 -0.200000
vertex 27.617310 47.617310 -0.200000
vertex 25.984882 48.957008 -0.200000
endloop
endfacet
facet normal 0.000000 -0.000004 -1.000000
outer loop
vertex 24.122459 49.952496 -0.200000
vertex 23.965862 50.000000 -0.200000
vertex 50.000000 50.000000 -0.200000
endloop
endfacet
facet normal -0.000000 -0.000000 -1.000000
outer loop
vertex 25.984882 48.957008 -0.200000
vertex 24.122459 49.952496 -0.200000
vertex 50.000000 50.000000 -0.200000
endloop
endfacet
facet normal 0.773012 0.634392 0.000000
outer loop
vertex 11.782997 33.113419 -0.200000
vertex 11.042987 34.015125 -0.200000
vertex 11.042987 34.015125 0.200000
endloop
endfacet
facet normal 0.773010 0.634393 0.000000
outer loop
vertex 11.782997 33.113419 0.200000
vertex 12.382685 32.382694 0.200001
vertex 12.382685 32.382694 -0.199999
endloop
endfacet
facet normal 0.773010 0.634393 0.000000
outer loop
vertex 11.782997 33.113419 -0.200000
vertex 11.042987 34.015125 0.200000
vertex 11.782997 33.113419 0.200000
endloop
endfacet
facet normal 0.773013 0.634390 0.000000
outer loop
vertex 11.782997 33.113419 0.200000
vertex 12.382685 32.382694 -0.199999
vertex 11.782997 33.113419 -0.200000
endloop
endfacet
endsolid Exported from Blender-2.79 (sub 0)
