solid Exported from Blender-2.79 (sub 0)
facet normal -1.000000 0.000000 0.000000
outer loop
vertex -50.000000 -50.000000 -0.200000
vertex -50.000000 -50.000000 0.200000
vertex -50.000000 -38.000000 0.200000
endloop
endfacet
facet normal -1.000000 0.000000 0.000000
outer loop
vertex -50.000000 -38.000000 0.200000
vertex -50.000000 -38.000000 -0.200000
vertex -50.000000 -50.000000 -0.200000
endloop
endfacet
facet normal 1.000000 0.000000 0.000000
outer loop
vertex 50.000000 50.000000 -0.200000
vertex 50.000000 50.000000 0.200000
vertex 50.000000 32.704418 0.200000
endloop
endfacet
facet normal 1.000000 0.000000 0.000000
outer loop
vertex 50.000000 32.704418 0.200000
vertex 50.000000 32.704418 -0.115401
vertex 50.000000 50.000000 -0.200000
endloop
endfacet
facet normal 1.000000 0.000000 0.000000
outer loop
vertex 50.000000 -31.777060 0.200000
vertex 50.000000 -31.777060 -0.200000
vertex 50.000000 16.138756 -0.200000
endloop
endfacet
facet normal 1.000000 0.000000 0.000000
outer loop
vertex 50.000000 16.138756 -0.200000
vertex 50.000000 16.138756 -0.034373
vertex 50.000000 -31.777060 0.200000
endloop
endfacet
facet normal 0.000000 0.000000 1.000000
outer loop
vertex -33.927410 50.000000 0.200000
vertex 6.999996 30.999998 0.200000
vertex 11.782997 33.113419 0.200000
endloop
endfacet
facet normal 0.000000 0.000000 1.000000
outer loop
vertex -33.927410 50.000000 0.200000
vertex 11.782997 33.113419 0.200000
vertex 11.042987 34.015125 0.200000
endloop
endfacet
facet normal 0.000000 -0.000004 1.000000
outer loop
vertex 15.877556 49.952499 0.200000
vertex 16.034147 50.000000 0.200000
vertex -33.927410 50.000000 0.200000
endloop
endfacet
facet normal 0.000000 -0.000000 1.000000
outer loop
vertex 14.015130 48.957016 0.200000
vertex 15.877556 49.952499 0.200000
vertex -33.927410 50.000000 0.200000
endloop
endfacet
facet normal 0.000000 0.000000 1.000000
outer loop
vertex -33.927410 50.000000 0.200000
vertex 11.042987 34.015125 0.200000
vertex 10.047502 35.877548 0.200000
endloop
endfacet
facet normal 0.000000 0.000000 1.000000
outer loop
vertex -33.927410 50.000000 0.200000
vertex 10.047502 35.877548 0.200000
vertex 9.434486 37.898399 0.200000
endloop
endfacet
facet normal 0.000000 -0.000000 1.000000
outer loop
vertex 12.382700 47.617321 0.200000
vertex 14.015130 48.957016 0.200000
vertex -33.927410 50.000000 0.200000
endloop
endfacet
facet normal 0.000000 -0.000000 1.000000
outer loop
vertex 11.042998 45.984894 0.200000
vertex 12.382700 47.617321 0.200000
vertex -33.927410 50.000000 0.200000
endloop
endfacet
facet normal 0.000000 0.000000 1.000000
outer loop
vertex -33.927410 50.000000 0.200000
vertex 9.434486 37.898399 0.200000
vertex 9.227497 40.000011 0.200000
endloop
endfacet
facet normal 0.000000 -0.000000 1.000000
outer loop
vertex -33.927410 50.000000 0.200000
vertex 9.227497 40.000011 0.200000
vertex 9.434490 42.101624 0.200000
endloop
endfacet
facet normal 0.000000 -0.000000 1.000000
outer loop
vertex 10.047510 44.122471 0.200000
vertex 11.042998 45.984894 0.200000
vertex -33.927410 50.000000 0.200000
endloop
endfacet
facet normal 0.000000 -0.000000 1.000000
outer loop
vertex 9.434490 42.101624 0.200000
vertex 10.047510 44.122471 0.200000
vertex -33.927410 50.000000 0.200000
endloop
endfacet
facet normal 0.000000 0.000000 1.000000
outer loop
vertex -33.927410 40.830193 0.200000
vertex -50.000000 40.830196 0.200000
vertex -50.000000 22.000004 0.200000
endloop
endfacet
facet normal 0.000000 0.000000 1.000000
outer loop
vertex 6.999996 30.999998 0.200000
vertex -33.927410 50.000000 0.200000
vertex -33.927410 40.830193 0.200000
endloop
endfacet
facet normal 0.000000 0.000000 1.000000
outer loop
vertex -33.000000 -38.000000 0.200000
vertex -23.000002 -29.000002 0.200000
vertex -23.000002 30.999998 0.200000
endloop
endfacet
facet normal 0.000000 0.000000 1.000000
outer loop
vertex -23.000002 30.999998 0.200000
vertex 6.999996 30.999998 0.200000
vertex -33.927410 40.830193 0.200000
endloop
endfacet
facet normal -0.000000 0.000000 1.000000
outer loop
vertex -33.927410 40.830193 0.200000
vertex -50.000000 22.000004 0.200000
vertex -33.000000 22.000000 0.200000
endloop
endfacet
facet normal -0.000000 0.000000 1.000000
outer loop
vertex -33.000000 22.000000 0.200000
vertex -33.000000 -38.000000 0.200000
vertex -23.000002 30.999998 0.200000
endloop
endfacet
facet normal 0.000000 0.000000 1.000000
outer loop
vertex -33.927410 40.830193 0.200000
vertex -33.000000 22.000000 0.200000
vertex -23.000002 30.999998 0.200000
endloop
endfacet
facet normal 1.000000 0.000000 0.000000
outer loop
vertex 31.357088 -31.777060 -0.200000
vertex 31.357088 -31.777060 0.200000
vertex 31.357092 -50.000000 0.200000
endloop
endfacet
facet normal 1.000000 0.000000 0.000000
outer loop
vertex 31.357092 -50.000000 0.200000
vertex 31.357092 -50.000000 -0.200000
vertex 31.357088 -31.777060 -0.200000
endloop
endfacet
facet normal -1.000000 0.000000 0.000000
outer loop
vertex -33.927410 40.830193 -0.200000
vertex -33.927410 40.830193 0.200000
vertex -33.927410 50.000000 0.200000
endloop
endfacet
facet normal -1.000000 0.000000 0.000000
outer loop
vertex -33.927410 50.000000 0.200000
vertex -33.927410 50.000000 -0.200000
vertex -33.927410 40.830193 -0.200000
endloop
endfacet
facet normal 0.000000 -1.000000 0.000000
outer loop
vertex 31.357088 -31.777060 0.200000
vertex 31.357088 -31.777060 -0.200000
vertex 50.000000 -31.777060 -0.200000
endloop
endfacet
facet normal 0.000000 -1.000000 0.000000
outer loop
vertex 50.000000 -31.777060 -0.200000
vertex 50.000000 -31.777060 0.200000
vertex 31.357088 -31.777060 0.200000
endloop
endfacet
facet normal 0.000000 1.000000 0.000000
outer loop
vertex -33.927410 40.830193 0.200000
vertex -33.927410 40.830193 -0.200000
vertex -50.000000 40.830196 -0.200000
endloop
endfacet
facet normal 0.000000 1.000000 0.000000
outer loop
vertex -50.000000 40.830196 -0.200000
vertex -50.000000 40.830196 0.200000
vertex -33.927410 40.830193 0.200000
endloop
endfacet
facet normal -1.000000 0.000000 0.000000
outer loop
vertex -33.000000 -38.000000 -0.200000
vertex -33.000000 -38.000000 0.200000
vertex -33.000000 22.000000 0.200000
endloop
endfacet
facet normal -1.000000 0.000000 0.000000
outer loop
vertex -33.000000 22.000000 0.200000
vertex -33.000000 22.000000 -0.200000
vertex -33.000000 -38.000000 -0.200000
endloop
endfacet
facet normal 1.000000 0.000000 0.000000
outer loop
vertex -23.000002 30.999998 -0.200000
vertex -23.000002 30.999998 0.200000
vertex -23.000002 -29.000002 0.200000
endloop
endfacet
facet normal 1.000000 0.000000 0.000000
outer loop
vertex -23.000002 -29.000002 0.200000
vertex -23.000002 -29.000002 -0.200000
vertex -23.000002 30.999998 -0.200000
endloop
endfacet
facet normal -1.000000 0.000000 0.000000
outer loop
vertex -50.000000 22.000004 -0.200000
vertex -50.000000 22.000004 0.200000
vertex -50.000000 40.830196 0.200000
endloop
endfacet
facet normal -1.000000 0.000000 0.000000
outer loop
vertex -50.000000 40.830196 0.200000
vertex -50.000000 40.830196 -0.200000
vertex -50.000000 22.000004 -0.200000
endloop
endfacet
facet normal 0.000000 1.000000 0.000000
outer loop
vertex -23.000002 -29.000002 -0.200000
vertex -23.000002 -29.000002 0.200000
vertex 6.999996 -29.000002 0.200000
endloop
endfacet
facet normal 0.000000 1.000000 0.000000
outer loop
vertex 6.999996 -29.000002 0.200000
vertex 6.999996 -29.000002 -0.200000
vertex -23.000002 -29.000002 -0.200000
endloop
endfacet
facet normal 0.000000 -1.000000 0.000000
outer loop
vertex 6.999996 30.999998 -0.200000
vertex 6.999996 30.999998 0.200000
vertex -23.000002 30.999998 0.200000
endloop
endfacet
facet normal 0.000000 -1.000000 0.000000
outer loop
vertex -23.000002 30.999998 0.200000
vertex -23.000002 30.999998 -0.200000
vertex 6.999996 30.999998 -0.200000
endloop
endfacet
facet normal 0.000000 1.000000 0.000000
outer loop
vertex 19.357094 -5.777055 -0.200000
vertex 19.357094 -5.777055 0.200000
vertex 39.357086 -5.777055 0.200000
endloop
endfacet
facet normal 0.000000 1.000000 0.000000
outer loop
vertex 39.357086 -5.777055 0.200000
vertex 39.357086 -5.777055 -0.200000
vertex 19.357094 -5.777055 -0.200000
endloop
endfacet
facet normal -1.000000 0.000000 0.000000
outer loop
vertex 39.357086 -5.777055 -0.200000
vertex 39.357086 -5.777055 0.200000
vertex 39.357086 13.460419 0.200000
endloop
endfacet
facet normal -1.000000 -0.000007 0.000000
outer loop
vertex 39.357086 13.460419 0.200000
vertex 39.357086 13.460419 0.184749
vertex 39.357086 -5.777055 -0.200000
endloop
endfacet
facet normal -0.000000 -1.000000 0.000000
outer loop
vertex -33.000000 22.000000 -0.200000
vertex -33.000000 22.000000 0.200000
vertex -50.000000 22.000004 0.200000
endloop
endfacet
facet normal -0.000000 -1.000000 0.000000
outer loop
vertex -50.000000 22.000004 0.200000
vertex -50.000000 22.000004 -0.200000
vertex -33.000000 22.000000 -0.200000
endloop
endfacet
facet normal 0.000000 0.000000 -1.000000
outer loop
vertex -50.000000 22.000004 -0.200000
vertex -50.000000 40.830196 -0.200000
vertex -33.927410 40.830193 -0.200000
endloop
endfacet
facet normal 0.000000 0.000000 -1.000000
outer loop
vertex 10.906028 45.728638 -0.200000
vertex -33.927410 40.830193 -0.200000
vertex -33.927410 50.000000 -0.200000
endloop
endfacet
facet normal 0.000000 -0.000004 -1.000000
outer loop
vertex -33.927410 50.000000 -0.200000
vertex 16.034147 50.000000 -0.200000
vertex 15.877556 49.952499 -0.200000
endloop
endfacet
facet normal 0.000000 -0.000000 -1.000000
outer loop
vertex -33.927410 50.000000 -0.200000
vertex 15.877556 49.952499 -0.200000
vertex 14.015130 48.957016 -0.200000
endloop
endfacet
facet normal 0.000000 0.000001 -1.000000
outer loop
vertex 11.042998 45.984894 -0.200000
vertex 10.906028 45.728638 -0.200000
vertex -33.927410 50.000000 -0.200000
endloop
endfacet
facet normal 0.000000 -0.000000 -1.000000
outer loop
vertex -33.927410 50.000000 -0.200000
vertex 14.015130 48.957016 -0.200000
vertex 12.382700 47.617321 -0.200000
endloop
endfacet
facet normal 0.000000 -0.000000 -1.000000
outer loop
vertex -33.927410 50.000000 -0.200000
vertex 12.382700 47.617321 -0.200000
vertex 11.042998 45.984894 -0.200000
endloop
endfacet
facet normal 0.000000 0.000000 -1.000000
outer loop
vertex 50.000000 50.000000 -0.200000
vertex 50.000000 32.704418 -0.200000
vertex 46.533340 31.832022 -0.200000
endloop
endfacet
facet normal -0.000000 0.000000 -1.000000
outer loop
vertex 44.670738 32.085228 -0.200000
vertex 50.000000 50.000000 -0.200000
vertex 46.533340 31.832022 -0.200000
endloop
endfacet
facet normal -0.000000 0.000000 -1.000000
outer loop
vertex 46.533340 31.832022 -0.200000
vertex 44.438599 31.304867 -0.200000
vertex 44.665558 32.067822 -0.200000
endloop
endfacet
facet normal -0.000001 -0.000009 -1.000000
outer loop
vertex 44.674545 32.070084 -0.200000
vertex 44.670738 32.085228 -0.200000
vertex 46.533340 31.832022 -0.200000
endloop
endfacet
facet normal 0.000005 0.000039 -1.000000
outer loop
vertex 46.533340 31.832022 -0.200000
vertex 44.665558 32.067822 -0.200000
vertex 44.674545 32.070084 -0.200000
endloop
endfacet
facet normal -0.000000 0.000000 -1.000000
outer loop
vertex -23.000002 30.999998 -0.200000
vertex -50.000000 22.000004 -0.200000
vertex -33.927410 40.830193 -0.200000
endloop
endfacet
facet normal 0.000000 0.000000 -1.000000
outer loop
vertex 19.357094 14.222944 -0.200000
vertex 6.999993 6.999993 -0.200000
vertex 6.999993 11.834166 -0.200000
endloop
endfacet
facet normal -0.000000 0.000000 -1.000000
outer loop
vertex 6.999993 11.834166 -0.200000
vertex 18.909122 14.831148 -0.200000
vertex 19.357094 14.222944 -0.200000
endloop
endfacet
facet normal 0.000000 0.000000 -1.000000
outer loop
vertex 6.999996 30.999998 -0.200000
vertex -23.000002 30.999998 -0.200000
vertex -33.927410 40.830193 -0.200000
endloop
endfacet
facet normal 0.000000 -0.000000 -1.000000
outer loop
vertex 50.000000 50.000000 -0.200000
vertex 44.670738 32.085228 -0.200000
vertex 44.186455 34.009609 -0.200000
endloop
endfacet
facet normal -0.000000 0.000000 -1.000000
outer loop
vertex 44.186455 34.009609 -0.200000
vertex 34.138565 31.481018 -0.200000
vertex 50.000000 50.000000 -0.200000
endloop
endfacet
facet normal 0.000000 0.000000 -1.000000
outer loop
vertex 11.782997 33.113419 -0.200000
vertex 6.999996 30.999998 -0.200000
vertex -33.927410 40.830193 -0.200000
endloop
endfacet
facet normal 0.000000 -0.000000 -1.000000
outer loop
vertex -33.927410 40.830193 -0.200000
vertex 10.906028 45.728638 -0.200000
vertex 10.047510 44.122471 -0.200000
endloop
endfacet
facet normal 0.000000 -0.000000 -1.000000
outer loop
vertex -33.927410 40.830193 -0.200000
vertex 10.047510 44.122471 -0.200000
vertex 9.434490 42.101624 -0.200000
endloop
endfacet
facet normal 0.000000 0.000000 -1.000000
outer loop
vertex 11.042987 34.015125 -0.200000
vertex 11.782997 33.113419 -0.200000
vertex -33.927410 40.830193 -0.200000
endloop
endfacet
facet normal 0.000000 0.000000 -1.000000
outer loop
vertex 10.047502 35.877548 -0.200000
vertex 11.042987 34.015125 -0.200000
vertex -33.927410 40.830193 -0.200000
endloop
endfacet
facet normal 0.000000 -0.000000 -1.000000
outer loop
vertex -33.927410 40.830193 -0.200000
vertex 9.434490 42.101624 -0.200000
vertex 9.227497 40.000011 -0.200000
endloop
endfacet
facet normal 0.000000 0.000000 -1.000000
outer loop
vertex 9.434486 37.898399 -0.200000
vertex 10.047502 35.877548 -0.200000
vertex -33.927410 40.830193 -0.200000
endloop
endfacet
facet normal 0.000000 0.000000 -1.000000
outer loop
vertex -33.927410 40.830193 -0.200000
vertex 9.227497 40.000011 -0.200000
vertex 9.434486 37.898399 -0.200000
endloop
endfacet
facet normal 0.000000 0.000000 -1.000000
outer loop
vertex 30.630537 41.441399 -0.200000
vertex 50.000000 50.000000 -0.200000
vertex 34.138565 31.481018 -0.200000
endloop
endfacet
facet normal 0.000000 0.000000 -1.000000
outer loop
vertex 10.944788 25.644211 -0.200000
vertex 6.999996 30.999998 -0.200000
vertex 11.782997 33.113419 -0.200000
endloop
endfacet
facet normal 0.000002 -0.000000 -1.000000
outer loop
vertex 10.944788 25.644211 -0.200000
vertex 11.782997 33.113419 -0.200000
vertex 12.382685 32.382694 -0.199999
endloop
endfacet
facet normal -0.000003 -0.000001 -1.000000
outer loop
vertex 30.772503 40.000000 -0.199999
vertex 30.630537 41.441399 -0.200000
vertex 34.138565 31.481018 -0.200000
endloop
endfacet
facet normal -0.000000 0.000000 -1.000000
outer loop
vertex 30.565514 37.898392 -0.199999
vertex 30.772503 40.000000 -0.199999
vertex 34.138565 31.481018 -0.200000
endloop
endfacet
facet normal 0.000000 0.000000 -1.000000
outer loop
vertex 10.944788 25.644211 -0.200000
vertex 12.382685 32.382694 -0.199999
vertex 14.015113 31.042995 -0.199999
endloop
endfacet
facet normal 0.000000 0.000000 -1.000000
outer loop
vertex 10.944788 25.644211 -0.200000
vertex 14.015113 31.042995 -0.199999
vertex 15.877537 30.047508 -0.199999
endloop
endfacet
facet normal -0.000000 0.000000 -1.000000
outer loop
vertex 29.952496 35.877544 -0.199999
vertex 30.565514 37.898392 -0.199999
vertex 34.138565 31.481018 -0.200000
endloop
endfacet
facet normal -0.000000 0.000000 -1.000000
outer loop
vertex 28.957008 34.015118 -0.199999
vertex 29.952496 35.877544 -0.199999
vertex 34.138565 31.481018 -0.200000
endloop
endfacet
facet normal 0.000000 0.000000 -1.000000
outer loop
vertex 10.944788 25.644211 -0.200000
vertex 15.877537 30.047508 -0.199999
vertex 17.898384 29.434488 -0.199999
endloop
endfacet
facet normal 0.000000 0.000000 -1.000000
outer loop
vertex 10.944788 25.644211 -0.200000
vertex 17.898384 29.434488 -0.199999
vertex 19.999996 29.227497 -0.199999
endloop
endfacet
facet normal -0.000000 0.000000 -1.000000
outer loop
vertex 27.617310 32.382690 -0.199999
vertex 28.957008 34.015118 -0.199999
vertex 34.138565 31.481018 -0.200000
endloop
endfacet
facet normal -0.000000 0.000000 -1.000000
outer loop
vertex 25.984882 31.042992 -0.199999
vertex 27.617310 32.382690 -0.199999
vertex 34.138565 31.481018 -0.200000
endloop
endfacet
facet normal -0.000000 0.000000 -1.000000
outer loop
vertex 10.944788 25.644211 -0.200000
vertex 19.999996 29.227497 -0.199999
vertex 22.101608 29.434486 -0.199999
endloop
endfacet
facet normal -0.000000 0.000000 -1.000000
outer loop
vertex 24.122456 30.047504 -0.199999
vertex 25.984882 31.042992 -0.199999
vertex 34.138565 31.481018 -0.200000
endloop
endfacet
facet normal -0.000001 0.000003 -1.000000
outer loop
vertex 10.944788 25.644211 -0.200000
vertex 22.101608 29.434486 -0.199999
vertex 24.122456 30.047504 -0.199999
endloop
endfacet
facet normal -0.000000 0.000001 -1.000000
outer loop
vertex 34.138565 31.481018 -0.200000
vertex 10.944788 25.644211 -0.200000
vertex 24.122456 30.047504 -0.199999
endloop
endfacet
facet normal 0.000000 0.000000 -1.000000
outer loop
vertex -33.000000 22.000000 -0.200000
vertex -50.000000 22.000004 -0.200000
vertex -23.000002 30.999998 -0.200000
endloop
endfacet
facet normal -0.000000 0.000000 -1.000000
outer loop
vertex -33.000000 22.000000 -0.200000
vertex -23.000002 30.999998 -0.200000
vertex -23.000002 -29.000002 -0.200000
endloop
endfacet
facet normal 0.000000 0.000000 -1.000000
outer loop
vertex -50.000000 -50.000000 -0.200000
vertex -50.000000 -38.000000 -0.200000
vertex -33.000000 -38.000000 -0.200000
endloop
endfacet
facet normal 0.000000 0.000000 -1.000000
outer loop
vertex -33.000000 -38.000000 -0.200000
vertex -33.000000 22.000000 -0.200000
vertex -23.000002 -29.000002 -0.200000
endloop
endfacet
facet normal 0.000000 -0.000000 -1.000000
outer loop
vertex 19.357094 14.222944 -0.200000
vertex 18.207048 10.200283 -0.200000
vertex 15.037025 9.402534 -0.200000
endloop
endfacet
facet normal 0.000000 -0.000000 -1.000000
outer loop
vertex 15.525116 7.463007 -0.200000
vertex 17.571728 7.978045 -0.200000
vertex 6.999996 -29.000002 -0.200000
endloop
endfacet
facet normal -0.000000 0.000000 -1.000000
outer loop
vertex 6.999993 6.999993 -0.200000
vertex 19.357094 14.222944 -0.200000
vertex 15.037025 9.402534 -0.200000
endloop
endfacet
facet normal 0.000000 -0.000000 -1.000000
outer loop
vertex 15.037025 9.402534 -0.200000
vertex 15.525116 7.463007 -0.200000
vertex 6.999996 -29.000002 -0.200000
endloop
endfacet
facet normal -0.000000 -0.000000 -1.000000
outer loop
vertex 6.999996 -29.000002 -0.200000
vertex 6.999993 6.999993 -0.200000
vertex 15.037025 9.402534 -0.200000
endloop
endfacet
facet normal 0.000000 0.000000 -1.000000
outer loop
vertex -33.000000 -38.000000 -0.200000
vertex -23.000002 -29.000002 -0.200000
vertex 6.999996 -29.000002 -0.200000
endloop
endfacet
facet normal 0.000000 0.000000 -1.000000
outer loop
vertex 31.357092 -50.000000 -0.200000
vertex -50.000000 -50.000000 -0.200000
vertex -33.000000 -38.000000 -0.200000
endloop
endfacet
facet normal 0.000000 0.000000 -1.000000
outer loop
vertex 39.357086 -5.777055 -0.200000
vertex 50.000000 -31.777060 -0.200000
vertex 31.357088 -31.777060 -0.200000
endloop
endfacet
facet normal 0.000000 0.000000 -1.000000
outer loop
vertex 31.357088 -31.777060 -0.200000
vertex 31.357092 -50.000000 -0.200000
vertex -33.000000 -38.000000 -0.200000
endloop
endfacet
facet normal 0.000000 0.000000 -1.000000
outer loop
vertex 6.999996 -29.000002 -0.200000
vertex 17.571728 7.978045 -0.200000
vertex 19.357094 8.427340 -0.200000
endloop
endfacet
facet normal 0.000000 0.000000 -1.000000
outer loop
vertex 19.357094 8.427340 -0.200000
vertex 19.357094 -5.777055 -0.200000
vertex 6.999996 -29.000002 -0.200000
endloop
endfacet
facet normal -0.000000 0.000000 -1.000000
outer loop
vertex 31.357088 -31.777060 -0.200000
vertex -33.000000 -38.000000 -0.200000
vertex 6.999996 -29.000002 -0.200000
endloop
endfacet
facet normal 0.000000 0.000000 -1.000000
outer loop
vertex 19.357094 -5.777055 -0.200000
vertex 39.357086 -5.777055 -0.200000
vertex 31.357088 -31.777060 -0.200000
endloop
endfacet
facet normal 0.000000 0.000000 -1.000000
outer loop
vertex 6.999996 -29.000002 -0.200000
vertex 19.357094 -5.777055 -0.200000
vertex 31.357088 -31.777060 -0.200000
endloop
endfacet
facet normal 0.000000 -1.000000 0.000000
outer loop
vertex -50.000000 -50.000000 0.200000
vertex -50.000000 -50.000000 -0.200000
vertex 31.357092 -50.000000 -0.200000
endloop
endfacet
facet normal 0.000000 -1.000000 0.000000
outer loop
vertex 31.357092 -50.000000 -0.200000
vertex 31.357092 -50.000000 0.200000
vertex -50.000000 -50.000000 0.200000
endloop
endfacet
facet normal 0.000000 1.000000 0.000000
outer loop
vertex -33.000000 -38.000000 0.200000
vertex -33.000000 -38.000000 -0.200000
vertex -50.000000 -38.000000 -0.200000
endloop
endfacet
facet normal 0.000000 1.000000 0.000000
outer loop
vertex -50.000000 -38.000000 -0.200000
vertex -50.000000 -38.000000 0.200000
vertex -33.000000 -38.000000 0.200000
endloop
endfacet
facet normal 0.000000 0.000000 1.000000
outer loop
vertex 6.999996 30.999998 0.200000
vertex 6.999995 24.651489 0.200000
vertex 8.966793 25.146442 0.200000
endloop
endfacet
facet normal -0.000000 0.000000 1.000000
outer loop
vertex 20.144232 15.141963 0.200000
vertex 19.357094 14.222944 0.200000
vertex 34.191929 14.222943 0.200000
endloop
endfacet
facet normal 0.000000 -0.000000 1.000000
outer loop
vertex 34.191929 14.222943 0.200000
vertex 39.775047 15.627955 0.200000
vertex 41.207294 20.442570 0.200000
endloop
endfacet
facet normal -0.000000 -0.000000 1.000000
outer loop
vertex 34.191929 14.222943 0.200000
vertex 41.207294 20.442570 0.200000
vertex 20.144232 15.141963 0.200000
endloop
endfacet
facet normal -0.000000 -0.000000 1.000000
outer loop
vertex 6.999996 30.999998 0.200000
vertex 8.966793 25.146442 0.200000
vertex 10.944788 25.644211 0.200000
endloop
endfacet
facet normal 0.000000 0.000000 1.000000
outer loop
vertex 11.782997 33.113419 0.200000
vertex 6.999996 30.999998 0.200000
vertex 10.944788 25.644211 0.200000
endloop
endfacet
facet normal 0.000000 0.000000 1.000000
outer loop
vertex 34.138565 31.481018 0.200000
vertex 50.000000 50.000000 0.200000
vertex 30.630537 41.441399 0.200000
endloop
endfacet
facet normal 0.000002 0.000001 1.000000
outer loop
vertex 34.138565 31.481018 0.200000
vertex 30.630537 41.441399 0.200000
vertex 30.772503 40.000000 0.200001
endloop
endfacet
facet normal -0.000001 0.000000 1.000000
outer loop
vertex 12.382685 32.382694 0.200001
vertex 11.782997 33.113419 0.200000
vertex 10.944788 25.644211 0.200000
endloop
endfacet
facet normal -0.000000 -0.000000 1.000000
outer loop
vertex 14.015113 31.042995 0.200001
vertex 12.382685 32.382694 0.200001
vertex 10.944788 25.644211 0.200000
endloop
endfacet
facet normal 0.000000 -0.000000 1.000000
outer loop
vertex 34.138565 31.481018 0.200000
vertex 30.772503 40.000000 0.200001
vertex 30.565514 37.898392 0.200001
endloop
endfacet
facet normal 0.000000 -0.000000 1.000000
outer loop
vertex 34.138565 31.481018 0.200000
vertex 30.565514 37.898392 0.200001
vertex 29.952496 35.877544 0.200001
endloop
endfacet
facet normal -0.000000 -0.000000 1.000000
outer loop
vertex 15.877537 30.047508 0.200001
vertex 14.015113 31.042995 0.200001
vertex 10.944788 25.644211 0.200000
endloop
endfacet
facet normal -0.000000 -0.000000 1.000000
outer loop
vertex 17.898384 29.434488 0.200001
vertex 15.877537 30.047508 0.200001
vertex 10.944788 25.644211 0.200000
endloop
endfacet
facet normal 0.000000 -0.000000 1.000000
outer loop
vertex 34.138565 31.481018 0.200000
vertex 29.952496 35.877544 0.200001
vertex 28.957008 34.015118 0.200001
endloop
endfacet
facet normal 0.000000 -0.000000 1.000000
outer loop
vertex 34.138565 31.481018 0.200000
vertex 28.957008 34.015118 0.200001
vertex 27.617310 32.382690 0.200001
endloop
endfacet
facet normal -0.000000 -0.000000 1.000000
outer loop
vertex 19.999996 29.227497 0.200001
vertex 17.898384 29.434488 0.200001
vertex 10.944788 25.644211 0.200000
endloop
endfacet
facet normal 0.000000 -0.000000 1.000000
outer loop
vertex 22.101608 29.434486 0.200001
vertex 19.999996 29.227497 0.200001
vertex 10.944788 25.644211 0.200000
endloop
endfacet
facet normal 0.000000 -0.000000 1.000000
outer loop
vertex 34.138565 31.481018 0.200000
vertex 27.617310 32.382690 0.200001
vertex 25.984882 31.042992 0.200001
endloop
endfacet
facet normal 0.000001 -0.000002 1.000000
outer loop
vertex 24.122456 30.047504 0.200001
vertex 22.101608 29.434486 0.200001
vertex 10.944788 25.644211 0.200000
endloop
endfacet
facet normal 0.000000 -0.000000 1.000000
outer loop
vertex 34.138565 31.481018 0.200000
vertex 25.984882 31.042992 0.200001
vertex 24.122456 30.047504 0.200001
endloop
endfacet
facet normal 0.000000 -0.000001 1.000000
outer loop
vertex 10.944788 25.644211 0.200000
vertex 34.138565 31.481018 0.200000
vertex 24.122456 30.047504 0.200001
endloop
endfacet
facet normal -0.000000 0.000000 1.000000
outer loop
vertex 46.533340 31.832022 0.200000
vertex 50.000000 50.000000 0.200000
vertex 44.670738 32.085228 0.200000
endloop
endfacet
facet normal -0.000038 0.000011 1.000000
outer loop
vertex 44.674545 32.070084 0.200000
vertex 44.665558 32.067822 0.200000
vertex 44.438599 31.304867 0.200000
endloop
endfacet
facet normal 0.000003 0.000021 1.000000
outer loop
vertex 46.533340 31.832022 0.200000
vertex 44.670738 32.085228 0.200000
vertex 44.674545 32.070084 0.200000
endloop
endfacet
facet normal 0.000000 -0.000000 1.000000
outer loop
vertex 44.674545 32.070084 0.200000
vertex 44.438599 31.304867 0.200000
vertex 46.533340 31.832022 0.200000
endloop
endfacet
facet normal 0.000000 0.000000 1.000000
outer loop
vertex 39.357086 -5.777055 0.200000
vertex 19.357094 -5.777055 0.200000
vertex 6.999993 -6.999993 0.200000
endloop
endfacet
facet normal 0.000000 0.000000 1.000000
outer loop
vertex 6.999996 -29.000002 0.200000
vertex -23.000002 -29.000002 0.200000
vertex -33.000000 -38.000000 0.200000
endloop
endfacet
facet normal 0.000000 0.000000 1.000000
outer loop
vertex 39.357086 -5.777055 0.200000
vertex 6.999993 -6.999993 0.200000
vertex 6.999996 -29.000002 0.200000
endloop
endfacet
facet normal -0.000000 0.000000 1.000000
outer loop
vertex 50.000000 -31.777060 0.200000
vertex 50.000000 16.138756 0.200000
vertex 43.212975 14.430775 0.200000
endloop
endfacet
facet normal 0.000000 0.000000 1.000000
outer loop
vertex 43.212975 14.430775 0.200000
vertex 39.357086 -5.777055 0.200000
vertex 50.000000 -31.777060 0.200000
endloop
endfacet
facet normal 0.000000 0.000000 1.000000
outer loop
vertex -50.000000 -50.000000 0.200000
vertex 31.357092 -50.000000 0.200000
vertex 31.357088 -31.777060 0.200000
endloop
endfacet
facet normal 0.000000 0.000000 1.000000
outer loop
vertex 31.357088 -31.777060 0.200000
vertex 50.000000 -31.777060 0.200000
vertex 39.357086 -5.777055 0.200000
endloop
endfacet
facet normal 0.000000 0.000000 1.000000
outer loop
vertex 31.357088 -31.777060 0.200000
vertex 39.357086 -5.777055 0.200000
vertex 6.999996 -29.000002 0.200000
endloop
endfacet
facet normal 0.000000 0.000000 1.000000
outer loop
vertex -33.000000 -38.000000 0.200000
vertex -50.000000 -38.000000 0.200000
vertex -50.000000 -50.000000 0.200000
endloop
endfacet
facet normal -0.000000 0.000000 1.000000
outer loop
vertex 31.357088 -31.777060 0.200000
vertex 6.999996 -29.000002 0.200000
vertex -33.000000 -38.000000 0.200000
endloop
endfacet
facet normal 0.000000 0.000000 1.000000
outer loop
vertex -33.000000 -38.000000 0.200000
vertex -50.000000 -50.000000 0.200000
vertex 31.357088 -31.777060 0.200000
endloop
endfacet
facet normal -1.000000 -0.000000 0.000000
outer loop
vertex 6.999993 6.999993 -0.200000
vertex 6.999996 -29.000002 -0.200000
vertex 6.999996 -29.000002 0.200000
endloop
endfacet
facet normal -1.000000 0.000000 0.000000
outer loop
vertex 6.999993 -6.999993 0.200000
vertex 6.999994 11.834166 0.200000
vertex 6.999994 11.834166 0.001746
endloop
endfacet
facet normal -1.000000 -0.000000 -0.000005
outer loop
vertex 6.999993 6.999993 -0.200000
vertex 6.999996 -29.000002 0.200000
vertex 6.999993 -6.999993 0.200000
endloop
endfacet
facet normal -1.000000 0.000000 0.000005
outer loop
vertex 6.999993 -6.999993 0.200000
vertex 6.999994 11.834166 0.001746
vertex 6.999993 11.834166 -0.200000
endloop
endfacet
facet normal -1.000000 0.000000 0.000003
outer loop
vertex 6.999993 11.834166 -0.200000
vertex 6.999993 6.999993 -0.200000
vertex 6.999993 -6.999993 0.200000
endloop
endfacet
facet normal 0.000000 1.000000 0.000000
outer loop
vertex -33.927410 50.000000 -0.200000
vertex -33.927410 50.000000 0.200000
vertex 16.034147 50.000000 0.200000
endloop
endfacet
facet normal 0.000000 1.000000 0.000000
outer loop
vertex 16.034147 50.000000 0.200000
vertex 16.034147 50.000000 0.038118
vertex -33.927410 50.000000 -0.200000
endloop
endfacet
facet normal 0.000000 1.000000 0.000000
outer loop
vertex 50.000000 50.000000 0.200000
vertex 50.000000 50.000000 -0.200000
vertex 23.965862 50.000000 -0.200000
endloop
endfacet
facet normal 0.000000 1.000000 0.000000
outer loop
vertex 23.965862 50.000000 -0.200000
vertex 23.965862 50.000000 0.075921
vertex 50.000000 50.000000 0.200000
endloop
endfacet
facet normal 1.000000 0.000000 0.000000
outer loop
vertex 19.357094 14.222944 -0.200000
vertex 19.357094 14.222944 0.200000
vertex 19.357094 10.489697 0.200000
endloop
endfacet
facet normal 1.000000 0.000000 0.000000
outer loop
vertex 19.357094 10.489697 0.200000
vertex 19.357094 10.489697 -0.125335
vertex 19.357094 14.222944 -0.200000
endloop
endfacet
facet normal 1.000000 0.000000 0.000000
outer loop
vertex 19.357094 -5.777055 0.200000
vertex 19.357094 -5.777055 -0.200000
vertex 19.357094 8.427340 -0.200000
endloop
endfacet
facet normal 1.000000 0.000000 0.000000
outer loop
vertex 19.357094 8.427340 -0.200000
vertex 19.357094 8.427341 -0.084088
vertex 19.357094 -5.777055 0.200000
endloop
endfacet
facet normal 0.000000 -1.000000 0.000000
outer loop
vertex 34.191929 14.222944 -0.096697
vertex 19.357094 14.222944 0.200000
vertex 19.357094 14.222944 -0.200000
endloop
endfacet
facet normal 0.000000 -1.000000 0.000089
outer loop
vertex 19.357094 14.222944 -0.200000
vertex 34.191929 14.222944 -0.200000
vertex 34.191925 14.222944 -0.187082
endloop
endfacet
facet normal 0.000000 -1.000000 -0.000013
outer loop
vertex 19.357094 14.222944 -0.200000
vertex 34.191925 14.222944 -0.187082
vertex 34.191929 14.222944 -0.096697
endloop
endfacet
facet normal -0.995185 0.098017 0.000000
outer loop
vertex 30.565514 37.898392 -0.199999
vertex 30.565514 37.898392 0.200001
vertex 30.772503 40.000000 0.200001
endloop
endfacet
facet normal -0.995185 0.098017 0.000000
outer loop
vertex 30.772503 40.000000 0.200001
vertex 30.772503 40.000000 -0.199999
vertex 30.565514 37.898392 -0.199999
endloop
endfacet
facet normal -0.773010 0.634394 0.000000
outer loop
vertex 27.617310 32.382690 -0.199999
vertex 27.617310 32.382690 0.200001
vertex 28.957008 34.015118 0.200001
endloop
endfacet
facet normal -0.773010 0.634394 0.000000
outer loop
vertex 28.957008 34.015118 0.200001
vertex 28.957008 34.015118 -0.199999
vertex 27.617310 32.382690 -0.199999
endloop
endfacet
facet normal -0.881921 0.471397 0.000000
outer loop
vertex 28.957008 34.015118 -0.199999
vertex 28.957008 34.015118 0.200001
vertex 29.952496 35.877544 0.200001
endloop
endfacet
facet normal -0.881922 0.471395 0.000000
outer loop
vertex 29.952496 35.877544 0.200001
vertex 29.952496 35.877544 -0.199999
vertex 28.957008 34.015118 -0.199999
endloop
endfacet
facet normal 0.995185 -0.098018 0.000000
outer loop
vertex 9.434490 42.101624 -0.200000
vertex 9.434490 42.101624 0.200000
vertex 9.227497 40.000011 0.200000
endloop
endfacet
facet normal 0.995185 -0.098019 0.000000
outer loop
vertex 9.227497 40.000011 0.200000
vertex 9.227497 40.000011 -0.200000
vertex 9.434490 42.101624 -0.200000
endloop
endfacet
facet normal -0.956940 -0.290287 0.000000
outer loop
vertex 30.565512 42.101612 -0.200000
vertex 30.565512 42.101612 0.200000
vertex 29.952496 44.122459 0.200000
endloop
endfacet
facet normal -0.956941 -0.290283 0.000000
outer loop
vertex 29.952496 44.122459 0.200000
vertex 29.952496 44.122459 -0.200000
vertex 30.565512 42.101612 -0.200000
endloop
endfacet
facet normal -0.995184 -0.098020 0.000000
outer loop
vertex 30.630537 41.441399 -0.200000
vertex 30.772503 40.000000 -0.199999
vertex 30.772503 40.000000 0.200001
endloop
endfacet
facet normal -0.995185 -0.098012 0.000000
outer loop
vertex 30.630537 41.441399 0.200000
vertex 30.565512 42.101612 0.200000
vertex 30.565512 42.101612 -0.200000
endloop
endfacet
facet normal -0.995185 -0.098015 0.000000
outer loop
vertex 30.630537 41.441399 -0.200000
vertex 30.772503 40.000000 0.200001
vertex 30.630537 41.441399 0.200000
endloop
endfacet
facet normal -0.995184 -0.098024 0.000000
outer loop
vertex 30.630537 41.441399 0.200000
vertex 30.565512 42.101612 -0.200000
vertex 30.630537 41.441399 -0.200000
endloop
endfacet
facet normal -0.773010 -0.634393 0.000000
outer loop
vertex 27.664621 47.559666 -0.200000
vertex 28.957008 45.984882 -0.200000
vertex 28.957008 45.984882 0.200000
endloop
endfacet
facet normal -0.773010 -0.634394 0.000000
outer loop
vertex 28.957008 45.984882 0.200000
vertex 27.617310 47.617310 0.200000
vertex 27.617310 47.617310 -0.200000
endloop
endfacet
facet normal -0.773003 -0.634402 -0.000560
outer loop
vertex 28.957008 45.984882 0.200000
vertex 27.617310 47.617310 -0.200000
vertex 27.664621 47.559666 -0.200000
endloop
endfacet
facet normal 0.098017 0.995185 0.000000
outer loop
vertex 17.898384 29.434488 -0.199999
vertex 17.898384 29.434488 0.200001
vertex 19.999996 29.227497 0.200001
endloop
endfacet
facet normal 0.098017 0.995185 0.000000
outer loop
vertex 19.999996 29.227497 0.200001
vertex 19.999996 29.227497 -0.199999
vertex 17.898384 29.434488 -0.199999
endloop
endfacet
facet normal 0.881921 -0.471396 0.000000
outer loop
vertex 10.906028 45.728638 -0.200000
vertex 11.042998 45.984894 -0.200000
vertex 11.042998 45.984894 0.200000
endloop
endfacet
facet normal 0.881921 -0.471398 0.000000
outer loop
vertex 11.042998 45.984894 0.200000
vertex 10.047510 44.122471 0.200000
vertex 10.047510 44.122471 -0.200000
endloop
endfacet
facet normal 0.881921 -0.471398 0.000010
outer loop
vertex 11.042998 45.984894 0.200000
vertex 10.047510 44.122471 -0.200000
vertex 10.906028 45.728638 -0.200000
endloop
endfacet
facet normal -0.098016 0.995185 0.000000
outer loop
vertex 19.999996 29.227497 -0.199999
vertex 19.999996 29.227497 0.200001
vertex 22.101608 29.434486 0.200001
endloop
endfacet
facet normal -0.098016 0.995185 0.000000
outer loop
vertex 22.101608 29.434486 0.200001
vertex 22.101608 29.434486 -0.199999
vertex 19.999996 29.227497 -0.199999
endloop
endfacet
facet normal 0.290276 -0.956943 0.000000
outer loop
vertex 16.034147 50.000000 0.200000
vertex 15.877556 49.952499 0.200000
vertex 15.877556 49.952499 -0.200000
endloop
endfacet
facet normal 0.290280 -0.956942 0.000000
outer loop
vertex 15.877556 49.952499 -0.200000
vertex 16.034147 50.000000 -0.200000
vertex 16.034147 50.000000 0.038118
endloop
endfacet
facet normal 0.290282 -0.956941 0.000000
outer loop
vertex 15.877556 49.952499 -0.200000
vertex 16.034147 50.000000 0.038118
vertex 16.034147 50.000000 0.200000
endloop
endfacet
facet normal -0.634394 -0.773010 0.000000
outer loop
vertex 27.617310 47.617310 -0.200000
vertex 27.617310 47.617310 0.200000
vertex 25.984882 48.957008 0.200000
endloop
endfacet
facet normal -0.634393 -0.773011 0.000000
outer loop
vertex 25.984882 48.957008 0.200000
vertex 25.984882 48.957008 -0.200000
vertex 27.617310 47.617310 -0.200000
endloop
endfacet
facet normal 0.000000 1.000000 0.000000
outer loop
vertex 16.034147 50.000000 0.038118
vertex 16.034147 50.000000 -0.200000
vertex -33.927410 50.000000 -0.200000
endloop
endfacet
facet normal 0.471397 0.881921 0.000000
outer loop
vertex 14.015113 31.042995 -0.199999
vertex 14.015113 31.042995 0.200001
vertex 15.877537 30.047508 0.200001
endloop
endfacet
facet normal 0.471397 0.881921 0.000000
outer loop
vertex 15.877537 30.047508 0.200001
vertex 15.877537 30.047508 -0.199999
vertex 14.015113 31.042995 -0.199999
endloop
endfacet
facet normal -0.471397 -0.881921 0.000000
outer loop
vertex 25.984882 48.957008 -0.200000
vertex 25.984882 48.957008 0.200000
vertex 24.122459 49.952496 0.200000
endloop
endfacet
facet normal -0.471397 -0.881921 0.000000
outer loop
vertex 24.122459 49.952496 0.200000
vertex 24.122459 49.952496 -0.200000
vertex 25.984882 48.957008 -0.200000
endloop
endfacet
facet normal -0.634393 0.773011 0.000000
outer loop
vertex 25.984882 31.042992 -0.199999
vertex 25.984882 31.042992 0.200001
vertex 27.617310 32.382690 0.200001
endloop
endfacet
facet normal -0.634394 0.773010 0.000000
outer loop
vertex 27.617310 32.382690 0.200001
vertex 27.617310 32.382690 -0.199999
vertex 25.984882 31.042992 -0.199999
endloop
endfacet
facet normal 0.634392 -0.773012 0.000000
outer loop
vertex 14.015130 48.957016 -0.200000
vertex 14.015130 48.957016 0.200000
vertex 12.382700 47.617321 0.200000
endloop
endfacet
facet normal 0.634392 -0.773012 0.000000
outer loop
vertex 12.382700 47.617321 0.200000
vertex 12.382700 47.617321 -0.200000
vertex 14.015130 48.957016 -0.200000
endloop
endfacet
facet normal 0.956940 -0.290285 0.000000
outer loop
vertex 10.047510 44.122471 -0.200000
vertex 10.047510 44.122471 0.200000
vertex 9.434490 42.101624 0.200000
endloop
endfacet
facet normal 0.956940 -0.290286 0.000000
outer loop
vertex 9.434490 42.101624 0.200000
vertex 9.434490 42.101624 -0.200000
vertex 10.047510 44.122471 -0.200000
endloop
endfacet
facet normal 0.000000 -0.000004 1.000000
outer loop
vertex 50.000000 50.000000 0.200000
vertex 23.965862 50.000000 0.200000
vertex 24.122459 49.952496 0.200000
endloop
endfacet
facet normal -0.000000 -0.000000 1.000000
outer loop
vertex 50.000000 50.000000 0.200000
vertex 24.122459 49.952496 0.200000
vertex 25.984882 48.957008 0.200000
endloop
endfacet
facet normal -0.000000 0.000000 1.000000
outer loop
vertex 30.565512 42.101612 0.200000
vertex 30.630537 41.441399 0.200000
vertex 50.000000 50.000000 0.200000
endloop
endfacet
facet normal -0.000000 -0.000000 1.000000
outer loop
vertex 29.952496 44.122459 0.200000
vertex 30.565512 42.101612 0.200000
vertex 50.000000 50.000000 0.200000
endloop
endfacet
facet normal -0.000000 -0.000000 1.000000
outer loop
vertex 50.000000 50.000000 0.200000
vertex 25.984882 48.957008 0.200000
vertex 27.617310 47.617310 0.200000
endloop
endfacet
facet normal -0.000000 -0.000000 1.000000
outer loop
vertex 28.957008 45.984882 0.200000
vertex 29.952496 44.122459 0.200000
vertex 50.000000 50.000000 0.200000
endloop
endfacet
facet normal -0.000000 -0.000000 1.000000
outer loop
vertex 27.617310 47.617310 0.200000
vertex 28.957008 45.984882 0.200000
vertex 50.000000 50.000000 0.200000
endloop
endfacet
facet normal -0.471397 0.881921 0.000000
outer loop
vertex 24.122456 30.047504 -0.199999
vertex 24.122456 30.047504 0.200001
vertex 25.984882 31.042992 0.200001
endloop
endfacet
facet normal -0.471396 0.881922 0.000000
outer loop
vertex 25.984882 31.042992 0.200001
vertex 25.984882 31.042992 -0.199999
vertex 24.122456 30.047504 -0.199999
endloop
endfacet
facet normal 0.634393 0.773010 0.000000
outer loop
vertex 12.382685 32.382694 -0.199999
vertex 12.382685 32.382694 0.200001
vertex 14.015113 31.042995 0.200001
endloop
endfacet
facet normal 0.634393 0.773011 0.000000
outer loop
vertex 14.015113 31.042995 0.200001
vertex 14.015113 31.042995 -0.199999
vertex 12.382685 32.382694 -0.199999
endloop
endfacet
facet normal 0.881921 0.471397 0.000000
outer loop
vertex 10.047502 35.877548 -0.200000
vertex 10.047502 35.877548 0.200000
vertex 11.042987 34.015125 0.200000
endloop
endfacet
facet normal 0.881922 0.471396 0.000000
outer loop
vertex 11.042987 34.015125 0.200000
vertex 11.042987 34.015125 -0.200000
vertex 10.047502 35.877548 -0.200000
endloop
endfacet
facet normal -0.881922 -0.471396 0.000000
outer loop
vertex 29.952496 44.122459 -0.200000
vertex 29.952496 44.122459 0.200000
vertex 28.957008 45.984882 0.200000
endloop
endfacet
facet normal -0.881921 -0.471398 0.000000
outer loop
vertex 28.957008 45.984882 0.200000
vertex 28.957008 45.984882 -0.200000
vertex 29.952496 44.122459 -0.200000
endloop
endfacet
facet normal 0.995185 0.098016 0.000000
outer loop
vertex 9.227497 40.000011 -0.200000
vertex 9.227497 40.000011 0.200000
vertex 9.434486 37.898399 0.200000
endloop
endfacet
facet normal 0.995185 0.098017 0.000000
outer loop
vertex 9.434486 37.898399 0.200000
vertex 9.434486 37.898399 -0.200000
vertex 9.227497 40.000011 -0.200000
endloop
endfacet
facet normal -0.000000 0.000000 -1.000000
outer loop
vertex 50.000000 50.000000 -0.200000
vertex 30.630537 41.441399 -0.200000
vertex 30.565512 42.101612 -0.200000
endloop
endfacet
facet normal -0.000000 -0.000000 -1.000000
outer loop
vertex 50.000000 50.000000 -0.200000
vertex 30.565512 42.101612 -0.200000
vertex 29.952496 44.122459 -0.200000
endloop
endfacet
facet normal 0.000000 -0.000000 -1.000000
outer loop
vertex 28.957008 45.984882 -0.200000
vertex 27.664621 47.559666 -0.200000
vertex 50.000000 50.000000 -0.200000
endloop
endfacet
facet normal -0.000000 -0.000000 -1.000000
outer loop
vertex 29.952496 44.122459 -0.200000
vertex 28.957008 45.984882 -0.200000
vertex 50.000000 50.000000 -0.200000
endloop
endfacet
facet normal -0.956940 0.290285 0.000000
outer loop
vertex 29.952496 35.877544 -0.199999
vertex 29.952496 35.877544 0.200001
vertex 30.565514 37.898392 0.200001
endloop
endfacet
facet normal -0.956940 0.290285 0.000000
outer loop
vertex 30.565514 37.898392 0.200001
vertex 30.565514 37.898392 -0.199999
vertex 29.952496 35.877544 -0.199999
endloop
endfacet
facet normal 0.290286 0.956940 0.000000
outer loop
vertex 15.877537 30.047508 -0.199999
vertex 15.877537 30.047508 0.200001
vertex 17.898384 29.434488 0.200001
endloop
endfacet
facet normal 0.290286 0.956940 0.000000
outer loop
vertex 17.898384 29.434488 0.200001
vertex 17.898384 29.434488 -0.199999
vertex 15.877537 30.047508 -0.199999
endloop
endfacet
facet normal 0.471395 -0.881922 0.000000
outer loop
vertex 15.877556 49.952499 -0.200000
vertex 15.877556 49.952499 0.200000
vertex 14.015130 48.957016 0.200000
endloop
endfacet
facet normal 0.471395 -0.881922 0.000000
outer loop
vertex 14.015130 48.957016 0.200000
vertex 14.015130 48.957016 -0.200000
vertex 15.877556 49.952499 -0.200000
endloop
endfacet
facet normal -0.290290 -0.956939 0.000000
outer loop
vertex 23.965862 50.000000 -0.200000
vertex 24.122459 49.952496 -0.200000
vertex 24.122459 49.952496 0.200000
endloop
endfacet
facet normal -0.290289 -0.956939 0.000000
outer loop
vertex 24.122459 49.952496 0.200000
vertex 23.965862 50.000000 0.200000
vertex 23.965862 50.000000 0.075921
endloop
endfacet
facet normal -0.290293 -0.956938 0.000000
outer loop
vertex 24.122459 49.952496 0.200000
vertex 23.965862 50.000000 0.075921
vertex 23.965862 50.000000 -0.200000
endloop
endfacet
facet normal -0.290285 0.956940 0.000000
outer loop
vertex 22.101608 29.434486 -0.199999
vertex 22.101608 29.434486 0.200001
vertex 24.122456 30.047504 0.200001
endloop
endfacet
facet normal -0.290285 0.956940 0.000000
outer loop
vertex 24.122456 30.047504 0.200001
vertex 24.122456 30.047504 -0.199999
vertex 22.101608 29.434486 -0.199999
endloop
endfacet
facet normal 0.956941 0.290283 0.000000
outer loop
vertex 9.434486 37.898399 -0.200000
vertex 9.434486 37.898399 0.200000
vertex 10.047502 35.877548 0.200000
endloop
endfacet
facet normal 0.956941 0.290283 0.000000
outer loop
vertex 10.047502 35.877548 0.200000
vertex 10.047502 35.877548 -0.200000
vertex 9.434486 37.898399 -0.200000
endloop
endfacet
facet normal 0.773009 -0.634395 0.000000
outer loop
vertex 12.382700 47.617321 -0.200000
vertex 12.382700 47.617321 0.200000
vertex 11.042998 45.984894 0.200000
endloop
endfacet
facet normal 0.773010 -0.634394 0.000000
outer loop
vertex 11.042998 45.984894 0.200000
vertex 11.042998 45.984894 -0.200000
vertex 12.382700 47.617321 -0.200000
endloop
endfacet
facet normal 0.000000 1.000000 0.000000
outer loop
vertex 23.965862 50.000000 0.075921
vertex 23.965862 50.000000 0.200000
vertex 50.000000 50.000000 0.200000
endloop
endfacet
facet normal -0.000000 0.000003 -1.000000
outer loop
vertex 50.000000 50.000000 -0.200000
vertex 27.664621 47.559666 -0.200000
vertex 27.617310 47.617310 -0.200000
endloop
endfacet
facet normal -0.000000 -0.000000 -1.000000
outer loop
vertex 50.000000 50.000000 -0.200000
vertex 27.617310 47.617310 -0.200000
vertex 25.984882 48.957008 -0.200000
endloop
endfacet
facet normal 0.000000 -0.000004 -1.000000
outer loop
vertex 24.122459 49.952496 -0.200000
vertex 23.965862 50.000000 -0.200000
vertex 50.000000 50.000000 -0.200000
endloop
endfacet
facet normal -0.000000 -0.000000 -1.000000
outer loop
vertex 25.984882 48.957008 -0.200000
vertex 24.122459 49.952496 -0.200000
vertex 50.000000 50.000000 -0.200000
endloop
endfacet
facet normal 0.773012 0.634392 0.000000
outer loop
vertex 11.782997 33.113419 -0.200000
vertex 11.042987 34.015125 -0.200000
vertex 11.042987 34.015125 0.200000
endloop
endfacet
facet normal 0.773010 0.634393 0.000000
outer loop
vertex 11.782997 33.113419 0.200000
vertex 12.382685 32.382694 0.200001
vertex 12.382685 32.382694 -0.199999
endloop
endfacet
facet normal 0.773010 0.634393 0.000000
outer loop
vertex 11.782997 33.113419 -0.200000
vertex 11.042987 34.015125 0.200000
vertex 11.782997 33.113419 0.200000
endloop
endfacet
facet normal 0.773013 0.634390 0.000000
outer loop
vertex 11.782997 33.113419 0.200000
vertex 12.382685 32.382694 -0.199999
vertex 11.782997 33.113419 -0.200000
endloop
endfacet
facet normal -0.000000 -0.000000 -1.000000
outer loop
vertex 12.226281 23.904348 -0.200000
vertex 31.886822 28.851999 -0.200000
vertex 31.116165 27.952221 -0.200000
endloop
endfacet
facet normal 0.000000 -0.000000 -1.000000
outer loop
vertex 13.037024 23.402534 -0.200000
vertex 13.265968 22.492777 -0.200000
vertex 12.226281 23.904348 -0.200000
endloop
endfacet
facet normal 0.000000 0.000000 -1.000000
outer loop
vertex 12.226281 23.904348 -0.200000
vertex 31.116165 27.952221 -0.200000
vertex 13.037024 23.402534 -0.200000
endloop
endfacet
facet normal 0.000000 0.000000 -1.000000
outer loop
vertex 13.946362 21.569016 -0.200000
vertex 28.864422 25.323204 -0.200000
vertex 22.395971 17.770979 -0.200000
endloop
endfacet
facet normal 0.000000 0.000000 -1.000000
outer loop
vertex 22.395971 17.770979 -0.200000
vertex 17.627630 16.571012 -0.200000
vertex 13.946362 21.569016 -0.200000
endloop
endfacet
facet normal 0.000000 0.000000 -1.000000
outer loop
vertex 18.909122 14.831148 -0.200000
vertex 20.144232 15.141963 -0.200000
vertex 19.357094 14.222944 -0.200000
endloop
endfacet
facet normal -1.000000 0.000000 0.000005
outer loop
vertex 6.999994 13.896523 -0.200000
vertex 6.999995 13.896523 -0.019963
vertex 6.999996 22.589128 -0.111465
endloop
endfacet
facet normal -1.000000 0.000000 0.000005
outer loop
vertex 6.999996 22.589128 -0.111465
vertex 6.999995 22.589130 -0.200000
vertex 6.999994 13.896523 -0.200000
endloop
endfacet
facet normal -1.000000 0.000000 0.000000
outer loop
vertex 6.999995 24.651489 -0.200000
vertex 6.999995 24.651489 -0.133174
vertex 6.999996 30.999998 -0.200000
endloop
endfacet
facet normal 1.000000 0.000000 0.000000
outer loop
vertex 19.357094 10.489697 -0.125335
vertex 19.357094 10.489697 -0.200000
vertex 19.357094 14.222944 -0.200000
endloop
endfacet
facet normal 0.969764 0.244045 0.000000
outer loop
vertex 15.037025 9.402534 -0.200000
vertex 15.037025 9.402534 0.200000
vertex 15.525116 7.463007 0.200000
endloop
endfacet
facet normal 0.969764 0.244045 0.000000
outer loop
vertex 15.525116 7.463007 0.200000
vertex 15.525116 7.463007 -0.200000
vertex 15.037025 9.402534 -0.200000
endloop
endfacet
facet normal 0.244045 -0.969764 0.000000
outer loop
vertex 19.357094 10.489697 0.200000
vertex 15.037025 9.402534 0.200000
vertex 15.037025 9.402534 -0.200000
endloop
endfacet
facet normal 0.244045 -0.969764 0.000000
outer loop
vertex 18.207048 10.200283 -0.200000
vertex 19.357094 10.489697 -0.200000
vertex 19.357094 10.489697 -0.125335
endloop
endfacet
facet normal 0.244045 -0.969764 0.000000
outer loop
vertex 19.357094 10.489697 0.200000
vertex 15.037025 9.402534 -0.200000
vertex 18.207048 10.200283 -0.200000
endloop
endfacet
facet normal 0.244045 -0.969764 0.000000
outer loop
vertex 18.207048 10.200283 -0.200000
vertex 19.357094 10.489697 -0.125335
vertex 19.357094 10.489697 0.200000
endloop
endfacet
facet normal 0.000000 -1.000000 0.000000
outer loop
vertex 34.191929 14.222944 -0.096697
vertex 34.191925 14.222944 -0.187082
vertex 34.191929 14.222944 -0.200000
endloop
endfacet
facet normal 0.001953 -0.001881 -0.999996
outer loop
vertex 39.775047 15.627955 -0.200000
vertex 43.626350 16.597157 -0.200000
vertex 50.000000 18.201111 -0.200000
endloop
endfacet
facet normal 0.244044 -0.969764 0.000000
outer loop
vertex 34.191929 14.222944 -0.096697
vertex 34.191929 14.222944 -0.200000
vertex 39.775047 15.627955 -0.200000
endloop
endfacet
facet normal 0.244045 -0.969764 0.000000
outer loop
vertex 39.775047 15.627955 0.200000
vertex 34.191929 14.222943 0.200000
vertex 34.191929 14.222944 -0.096697
endloop
endfacet
facet normal 0.002344 -0.001504 0.999996
outer loop
vertex 50.000000 18.201111 0.200000
vertex 43.626350 16.597157 0.200000
vertex 39.775047 15.627955 0.200000
endloop
endfacet
facet normal 0.000000 -1.000000 0.000000
outer loop
vertex 50.000000 18.201111 -0.200000
vertex 50.000000 18.201111 -0.044461
vertex 50.000000 18.201111 0.200000
endloop
endfacet
facet normal 0.244046 -0.969764 0.000112
outer loop
vertex 34.191929 14.222944 -0.096697
vertex 39.775047 15.627955 -0.200000
vertex 50.000000 18.201111 -0.200000
endloop
endfacet
facet normal 0.244045 -0.969764 -0.000039
outer loop
vertex 50.000000 18.201111 0.200000
vertex 39.775047 15.627955 0.200000
vertex 34.191929 14.222944 -0.096697
endloop
endfacet
facet normal 0.244045 -0.969764 0.000000
outer loop
vertex 34.191929 14.222944 -0.096697
vertex 50.000000 18.201111 -0.200000
vertex 50.000000 18.201111 0.200000
endloop
endfacet
facet normal 0.000000 0.000000 1.000000
outer loop
vertex 46.119965 29.665630 0.200000
vertex 43.775440 29.075619 0.200000
vertex 41.870445 22.671810 0.200000
endloop
endfacet
facet normal 0.000000 -0.000000 1.000000
outer loop
vertex 41.870445 22.671810 0.200000
vertex 44.932495 23.442390 0.200000
vertex 46.119965 29.665630 0.200000
endloop
endfacet
facet normal 0.000000 -0.000000 1.000000
outer loop
vertex 44.519127 21.276011 0.200000
vertex 41.207294 20.442570 0.200000
vertex 39.775047 15.627955 0.200000
endloop
endfacet
facet normal 0.000000 0.000000 1.000000
outer loop
vertex 39.775047 15.627955 0.200000
vertex 43.626350 16.597157 0.200000
vertex 44.519127 21.276011 0.200000
endloop
endfacet
facet normal 0.000000 0.000000 1.000000
outer loop
vertex 43.212975 14.430775 0.200000
vertex 39.357086 13.460419 0.200000
vertex 39.357086 -5.777055 0.200000
endloop
endfacet
facet normal -0.000000 0.000000 1.000000
outer loop
vertex 22.395971 17.770979 0.200000
vertex 41.870445 22.671810 0.200000
vertex 43.775440 29.075619 0.200000
endloop
endfacet
facet normal 0.000000 0.000000 1.000000
outer loop
vertex 43.775440 29.075619 0.200000
vertex 28.864422 25.323204 0.200000
vertex 22.395971 17.770979 0.200000
endloop
endfacet
facet normal -0.000000 0.000000 1.000000
outer loop
vertex 31.116165 27.952221 0.200000
vertex 44.438599 31.304867 0.200000
vertex 44.665558 32.067822 0.200000
endloop
endfacet
facet normal 0.000000 0.000000 1.000000
outer loop
vertex 44.665558 32.067822 0.200000
vertex 31.886822 28.851999 0.200000
vertex 31.116165 27.952221 0.200000
endloop
endfacet
facet normal 0.000000 -0.000000 -1.000000
outer loop
vertex 34.138565 31.481018 0.200000
vertex 44.186455 34.009609 0.200000
vertex 44.670738 32.085228 0.200000
endloop
endfacet
facet normal 0.000000 0.000000 1.000000
outer loop
vertex 44.670738 32.085228 0.200000
vertex 50.000000 50.000000 0.200000
vertex 34.138565 31.481018 0.200000
endloop
endfacet
facet normal 0.000000 -0.000000 1.000000
outer loop
vertex 13.265968 22.492777 0.200000
vertex 12.226281 23.904348 0.200000
vertex 9.605721 23.244873 0.200000
endloop
endfacet
facet normal 0.000000 -0.000000 1.000000
outer loop
vertex 9.605721 23.244873 0.200000
vertex 12.298729 15.229971 0.200000
vertex 17.627630 16.571012 0.200000
endloop
endfacet
facet normal 0.000000 0.000000 1.000000
outer loop
vertex 17.627630 16.571012 0.200000
vertex 13.946362 21.569016 0.200000
vertex 13.525114 21.463007 0.200000
endloop
endfacet
facet normal 0.000000 0.000000 1.000000
outer loop
vertex 13.525114 21.463007 0.200000
vertex 13.265968 22.492777 0.200000
vertex 9.605721 23.244873 0.200000
endloop
endfacet
facet normal -0.000000 -0.000000 1.000000
outer loop
vertex 9.605721 23.244873 0.200000
vertex 17.627630 16.571012 0.200000
vertex 13.525114 21.463007 0.200000
endloop
endfacet
facet normal 0.000000 0.000000 1.000000
outer loop
vertex 19.357094 14.222944 0.200000
vertex 18.909122 14.831148 0.200000
vertex 12.937655 13.328405 0.200000
endloop
endfacet
facet normal 0.000000 0.000000 1.000000
outer loop
vertex 19.357094 -5.777055 0.200000
vertex 19.357094 8.427340 0.200000
vertex 15.525116 7.463007 0.200000
endloop
endfacet
facet normal 0.000000 0.000000 1.000000
outer loop
vertex 15.037025 9.402534 0.200000
vertex 19.357094 10.489697 0.200000
vertex 19.357094 14.222944 0.200000
endloop
endfacet
facet normal -0.000000 -0.000000 1.000000
outer loop
vertex 12.937655 13.328405 0.200000
vertex 19.357094 -5.777055 0.200000
vertex 15.525116 7.463007 0.200000
endloop
endfacet
facet normal 0.000000 0.000000 1.000000
outer loop
vertex 15.037025 9.402534 0.200000
vertex 19.357094 14.222944 0.200000
vertex 12.937655 13.328405 0.200000
endloop
endfacet
facet normal -0.000000 -0.000000 1.000000
outer loop
vertex 12.937655 13.328405 0.200000
vertex 15.525116 7.463007 0.200000
vertex 15.037025 9.402534 0.200000
endloop
endfacet
facet normal 0.000000 0.000000 1.000000
outer loop
vertex 9.605721 23.244873 0.200000
vertex 6.999996 22.589130 0.200000
vertex 6.999995 13.896523 0.200000
endloop
endfacet
facet normal -0.000000 -0.000000 1.000000
outer loop
vertex 6.999995 13.896523 0.200000
vertex 12.298729 15.229971 0.200000
vertex 9.605721 23.244873 0.200000
endloop
endfacet
facet normal -0.000000 0.000000 1.000000
outer loop
vertex 12.937655 13.328405 0.200000
vertex 6.999994 11.834166 0.200000
vertex 6.999993 -6.999993 0.200000
endloop
endfacet
facet normal -0.000000 -0.000000 1.000000
outer loop
vertex 6.999993 -6.999993 0.200000
vertex 19.357094 -5.777055 0.200000
vertex 12.937655 13.328405 0.200000
endloop
endfacet
facet normal 1.000000 0.000000 0.000000
outer loop
vertex 50.000000 30.642061 -0.105314
vertex 50.000000 30.642061 0.200000
vertex 50.000000 18.201111 0.200000
endloop
endfacet
facet normal 1.000000 -0.000000 0.000000
outer loop
vertex 50.000000 18.201111 0.200000
vertex 50.000000 18.201111 -0.044461
vertex 50.000000 30.642061 -0.105314
endloop
endfacet
facet normal 1.000000 0.000000 0.000000
outer loop
vertex 50.000000 16.138756 -0.034373
vertex 50.000000 16.138756 0.200000
vertex 50.000000 -31.777060 0.200000
endloop
endfacet
facet normal -0.244045 0.969764 0.000000
outer loop
vertex 44.519127 21.276011 0.200000
vertex 47.674553 22.070087 0.200000
vertex 47.674553 22.070086 -0.200000
endloop
endfacet
facet normal -0.548752 0.835985 0.000000
outer loop
vertex 44.519127 21.276011 -0.200000
vertex 41.207294 20.442570 -0.200000
vertex 20.144232 15.141963 -0.200000
endloop
endfacet
facet normal -0.244045 0.969764 0.000000
outer loop
vertex 44.519127 21.276011 0.200000
vertex 47.674553 22.070086 -0.200000
vertex 44.519127 21.276011 -0.200000
endloop
endfacet
facet normal -0.005859 0.011901 0.999912
outer loop
vertex 20.144232 15.141963 0.200000
vertex 41.207294 20.442570 0.200000
vertex 44.519127 21.276011 0.200000
endloop
endfacet
facet normal -0.003906 0.011629 -0.999925
outer loop
vertex 6.999994 11.834166 0.200000
vertex 12.937655 13.328405 0.200000
vertex 18.909122 14.831148 0.200000
endloop
endfacet
facet normal -0.244045 0.969764 0.000000
outer loop
vertex 20.144232 15.141963 0.200000
vertex 44.519127 21.276011 0.200000
vertex 44.519127 21.276011 -0.200000
endloop
endfacet
facet normal -0.244045 0.969764 0.000000
outer loop
vertex 6.999994 11.834166 0.001746
vertex 6.999994 11.834166 0.200000
vertex 18.909122 14.831148 0.200000
endloop
endfacet
facet normal -0.244040 0.969765 0.000240
outer loop
vertex 18.909122 14.831148 0.200000
vertex 20.144232 15.141963 0.200000
vertex 44.519127 21.276011 -0.200000
endloop
endfacet
facet normal 0.000000 0.000000 1.000000
outer loop
vertex 20.144232 15.141963 -0.200000
vertex 18.909122 14.831148 -0.200000
vertex 6.999993 11.834166 -0.200000
endloop
endfacet
facet normal -0.244045 0.969764 -0.000012
outer loop
vertex 18.909122 14.831148 0.200000
vertex 44.519127 21.276011 -0.200000
vertex 20.144232 15.141963 -0.200000
endloop
endfacet
facet normal -0.244045 0.969764 0.000000
outer loop
vertex 6.999993 11.834166 -0.200000
vertex 6.999994 11.834166 0.001746
vertex 18.909122 14.831148 0.200000
endloop
endfacet
facet normal -0.244045 0.969764 -0.000017
outer loop
vertex 20.144232 15.141963 -0.200000
vertex 6.999993 11.834166 -0.200000
vertex 18.909122 14.831148 0.200000
endloop
endfacet
facet normal 0.000000 0.000000 -1.000000
outer loop
vertex 13.946362 21.569016 -0.200000
vertex 17.627630 16.571012 -0.200000
vertex 6.999994 13.896523 -0.200000
endloop
endfacet
facet normal -0.000000 0.000000 -1.000000
outer loop
vertex 6.999994 13.896523 -0.200000
vertex 6.999995 22.589130 -0.200000
vertex 12.226281 23.904348 -0.200000
endloop
endfacet
facet normal 0.000000 0.000000 -1.000000
outer loop
vertex 12.226281 23.904348 -0.200000
vertex 13.265968 22.492777 -0.200000
vertex 13.525114 21.463007 -0.200000
endloop
endfacet
facet normal 0.000000 -0.000000 -1.000000
outer loop
vertex 13.525114 21.463007 -0.200000
vertex 13.946362 21.569016 -0.200000
vertex 6.999994 13.896523 -0.200000
endloop
endfacet
facet normal 0.000000 0.000000 -1.000000
outer loop
vertex 6.999994 13.896523 -0.200000
vertex 12.226281 23.904348 -0.200000
vertex 13.525114 21.463007 -0.200000
endloop
endfacet
facet normal -0.000000 0.000000 -1.000000
outer loop
vertex 10.944788 25.644211 -0.200000
vertex 6.999995 24.651489 -0.200000
vertex 6.999996 30.999998 -0.200000
endloop
endfacet
facet normal -0.243696 0.969852 0.000000
outer loop
vertex 44.665558 32.067822 0.200000
vertex 44.674545 32.070084 0.200000
vertex 44.674545 32.070084 -0.200000
endloop
endfacet
facet normal -0.268057 0.963403 0.000000
outer loop
vertex 44.674545 32.070084 -0.200000
vertex 44.665558 32.067822 -0.200000
vertex 31.886822 28.851999 -0.200000
endloop
endfacet
facet normal -0.001776 0.003955 0.999991
outer loop
vertex 31.886822 28.851999 -0.200000
vertex 12.226281 23.904348 -0.200000
vertex 6.999995 22.589130 -0.200000
endloop
endfacet
facet normal -0.847998 -0.529999 0.000000
outer loop
vertex 6.999995 22.589130 -0.200000
vertex 6.999996 22.589128 -0.111465
vertex 6.999996 22.589130 0.200000
endloop
endfacet
facet normal -0.001302 0.001706 -0.999998
outer loop
vertex 6.999996 22.589130 0.200000
vertex 9.605721 23.244873 0.200000
vertex 12.226281 23.904348 0.200000
endloop
endfacet
facet normal -0.244045 0.969764 -0.000004
outer loop
vertex 31.886822 28.851999 0.200000
vertex 44.665558 32.067822 0.200000
vertex 44.674545 32.070084 -0.200000
endloop
endfacet
facet normal -0.000977 0.003038 -0.999995
outer loop
vertex 6.999996 22.589130 0.200000
vertex 12.226281 23.904348 0.200000
vertex 31.886822 28.851999 0.200000
endloop
endfacet
facet normal -0.244045 0.969764 -0.000002
outer loop
vertex 31.886822 28.851999 -0.200000
vertex 6.999995 22.589130 -0.200000
vertex 6.999996 22.589130 0.200000
endloop
endfacet
facet normal -0.244045 0.969764 0.000000
outer loop
vertex 31.886822 28.851999 0.200000
vertex 44.674545 32.070084 -0.200000
vertex 31.886822 28.851999 -0.200000
endloop
endfacet
facet normal -0.244045 0.969764 0.000000
outer loop
vertex 31.886822 28.851999 -0.200000
vertex 6.999996 22.589130 0.200000
vertex 31.886822 28.851999 0.200000
endloop
endfacet
facet normal 0.000000 -0.000000 -1.000000
outer loop
vertex 43.775440 29.075619 -0.200000
vertex 46.119965 29.665630 -0.200000
vertex 44.932495 23.442390 -0.200000
endloop
endfacet
facet normal 0.000000 -0.000000 -1.000000
outer loop
vertex 44.932495 23.442390 -0.200000
vertex 41.870445 22.671810 -0.200000
vertex 43.775440 29.075619 -0.200000
endloop
endfacet
facet normal 0.000000 -0.000000 -1.000000
outer loop
vertex 41.207294 20.442570 -0.200000
vertex 44.519127 21.276011 -0.200000
vertex 43.626350 16.597157 -0.200000
endloop
endfacet
facet normal 0.000000 -0.000000 -1.000000
outer loop
vertex 43.626350 16.597157 -0.200000
vertex 39.775047 15.627955 -0.200000
vertex 41.207294 20.442570 -0.200000
endloop
endfacet
facet normal 0.000000 0.000000 -1.000000
outer loop
vertex 39.357086 13.460419 -0.200000
vertex 43.212975 14.430775 -0.200000
vertex 39.357086 -5.777055 -0.200000
endloop
endfacet
facet normal -0.000000 -1.000000 0.000000
outer loop
vertex 34.191929 14.222944 -0.096697
vertex 34.191929 14.222943 0.200000
vertex 19.357094 14.222944 0.200000
endloop
endfacet
facet normal 0.969764 0.244045 0.000000
outer loop
vertex 13.265968 22.492777 -0.200000
vertex 13.037024 23.402534 -0.200000
vertex 13.037024 23.402534 0.200000
endloop
endfacet
facet normal 0.969763 0.244048 0.000000
outer loop
vertex 13.265968 22.492777 0.200000
vertex 13.525114 21.463007 0.200000
vertex 13.525114 21.463007 -0.200000
endloop
endfacet
facet normal 0.969764 0.244045 0.000000
outer loop
vertex 13.265968 22.492777 -0.200000
vertex 13.037024 23.402534 0.200000
vertex 13.265968 22.492777 0.200000
endloop
endfacet
facet normal 0.969764 0.244043 0.000000
outer loop
vertex 13.265968 22.492777 0.200000
vertex 13.525114 21.463007 -0.200000
vertex 13.265968 22.492777 -0.200000
endloop
endfacet
facet normal -1.000000 0.000000 0.000000
outer loop
vertex 39.357086 13.460419 0.184749
vertex 39.357086 13.460419 -0.200000
vertex 39.357086 -5.777055 -0.200000
endloop
endfacet
facet normal 0.000000 -0.000000 -1.000000
outer loop
vertex 44.932495 23.442390 -0.200000
vertex 46.119965 29.665630 -0.200000
vertex 50.000000 30.642061 -0.200000
endloop
endfacet
facet normal 0.000000 -0.000000 -1.000000
outer loop
vertex 50.000000 18.201111 -0.200000
vertex 43.626350 16.597157 -0.200000
vertex 44.519127 21.276011 -0.200000
endloop
endfacet
facet normal -0.000000 -0.000000 -1.000000
outer loop
vertex 50.000000 18.201111 -0.200000
vertex 44.519127 21.276011 -0.200000
vertex 47.674553 22.070086 -0.200000
endloop
endfacet
facet normal -0.000000 0.000000 -1.000000
outer loop
vertex 47.186462 24.009613 -0.200000
vertex 44.932495 23.442390 -0.200000
vertex 50.000000 30.642061 -0.200000
endloop
endfacet
facet normal 0.000000 0.000000 -1.000000
outer loop
vertex 50.000000 18.201111 -0.200000
vertex 47.674553 22.070086 -0.200000
vertex 47.186462 24.009613 -0.200000
endloop
endfacet
facet normal 0.000000 -0.000000 -1.000000
outer loop
vertex 50.000000 30.642061 -0.200000
vertex 50.000000 18.201111 -0.200000
vertex 47.186462 24.009613 -0.200000
endloop
endfacet
facet normal 0.000000 0.000000 -1.000000
outer loop
vertex 43.212975 14.430775 -0.200000
vertex 50.000000 16.138756 -0.200000
vertex 50.000000 -31.777060 -0.200000
endloop
endfacet
facet normal 0.000000 0.000000 -1.000000
outer loop
vertex 50.000000 -31.777060 -0.200000
vertex 39.357086 -5.777055 -0.200000
vertex 43.212975 14.430775 -0.200000
endloop
endfacet
facet normal 1.000000 0.000000 0.000000
outer loop
vertex 19.357094 8.427341 -0.084088
vertex 19.357094 8.427340 0.200000
vertex 19.357094 -5.777055 0.200000
endloop
endfacet
facet normal -0.969854 -0.243685 0.000000
outer loop
vertex 44.670738 32.085228 -0.200000
vertex 44.674545 32.070084 -0.200000
vertex 44.674545 32.070084 0.200000
endloop
endfacet
facet normal -0.969762 -0.244053 0.000000
outer loop
vertex 44.670738 32.085228 0.200000
vertex 44.186455 34.009609 0.200000
vertex 44.186455 34.009609 -0.200000
endloop
endfacet
facet normal -0.969757 -0.244070 0.000000
outer loop
vertex 44.670738 32.085228 -0.200000
vertex 44.674545 32.070084 0.200000
vertex 44.670738 32.085228 0.200000
endloop
endfacet
facet normal -0.969764 -0.244044 0.000000
outer loop
vertex 44.670738 32.085228 0.200000
vertex 44.186455 34.009609 -0.200000
vertex 44.670738 32.085228 -0.200000
endloop
endfacet
facet normal 0.244047 -0.969763 0.000000
outer loop
vertex 44.932495 23.442390 -0.200000
vertex 47.186462 24.009613 -0.200000
vertex 47.186462 24.009613 0.200000
endloop
endfacet
facet normal 0.001302 -0.003419 -0.999993
outer loop
vertex 44.932495 23.442390 0.200000
vertex 41.870445 22.671810 0.200000
vertex 22.395971 17.770979 0.200000
endloop
endfacet
facet normal 0.244046 -0.969764 0.000000
outer loop
vertex 44.932495 23.442390 -0.200000
vertex 47.186462 24.009613 0.200000
vertex 44.932495 23.442390 0.200000
endloop
endfacet
facet normal 0.001628 -0.003419 0.999993
outer loop
vertex 22.395971 17.770979 -0.200000
vertex 41.870445 22.671810 -0.200000
vertex 44.932495 23.442390 -0.200000
endloop
endfacet
facet normal 0.244045 -0.969764 0.000015
outer loop
vertex 6.999995 13.896523 -0.019963
vertex 6.999994 13.896523 -0.200000
vertex 17.627630 16.571012 -0.200000
endloop
endfacet
facet normal 0.000000 -0.000388 1.000000
outer loop
vertex 17.627630 16.571012 -0.200000
vertex 22.395971 17.770979 -0.200000
vertex 44.932495 23.442390 -0.200000
endloop
endfacet
facet normal 0.244045 -0.969764 0.000000
outer loop
vertex 44.932495 23.442390 -0.200000
vertex 44.932495 23.442390 0.200000
vertex 22.395971 17.770979 0.200000
endloop
endfacet
facet normal 0.001953 0.000000 -0.999998
outer loop
vertex 17.627630 16.571012 0.200000
vertex 12.298729 15.229971 0.200000
vertex 6.999995 13.896523 0.200000
endloop
endfacet
facet normal 0.244044 -0.969764 -0.000093
outer loop
vertex 44.932495 23.442390 -0.200000
vertex 22.395971 17.770979 0.200000
vertex 17.627630 16.571012 0.200000
endloop
endfacet
facet normal 0.244045 -0.969764 -0.000048
outer loop
vertex 6.999995 13.896523 -0.019963
vertex 17.627630 16.571012 -0.200000
vertex 44.932495 23.442390 -0.200000
endloop
endfacet
facet normal 0.244045 -0.969764 0.000000
outer loop
vertex 17.627630 16.571012 0.200000
vertex 6.999995 13.896523 0.200000
vertex 6.999995 13.896523 -0.019963
endloop
endfacet
facet normal 0.244045 -0.969764 0.000023
outer loop
vertex 17.627630 16.571012 0.200000
vertex 6.999995 13.896523 -0.019963
vertex 44.932495 23.442390 -0.200000
endloop
endfacet
facet normal 0.244045 -0.969764 0.000000
outer loop
vertex 31.116165 27.952221 0.200000
vertex 13.037024 23.402534 0.200000
vertex 13.037024 23.402534 -0.200000
endloop
endfacet
facet normal 0.244045 -0.969764 0.000000
outer loop
vertex 31.116165 27.952221 0.200000
vertex 13.037024 23.402534 -0.200000
vertex 31.116165 27.952221 -0.200000
endloop
endfacet
facet normal 0.000000 -0.005431 0.999985
outer loop
vertex 50.000000 32.704418 0.200000
vertex 46.533340 31.832022 0.200000
vertex 44.438599 31.304867 0.200000
endloop
endfacet
facet normal 0.244045 -0.969764 0.000000
outer loop
vertex 44.438599 31.304867 0.200000
vertex 31.116165 27.952221 0.200000
vertex 31.116165 27.952221 -0.200000
endloop
endfacet
facet normal 0.000000 -0.005431 -0.999985
outer loop
vertex 44.438599 31.304867 -0.200000
vertex 46.533340 31.832022 -0.200000
vertex 50.000000 32.704418 -0.200000
endloop
endfacet
facet normal 0.244045 -0.969764 0.000000
outer loop
vertex 44.438599 31.304867 0.200000
vertex 31.116165 27.952221 -0.200000
vertex 44.438599 31.304867 -0.200000
endloop
endfacet
facet normal 0.244046 -0.969764 0.000000
outer loop
vertex 50.000000 32.704418 -0.115401
vertex 50.000000 32.704418 0.200000
vertex 44.438599 31.304867 0.200000
endloop
endfacet
facet normal 0.244045 -0.969764 0.000000
outer loop
vertex 44.438599 31.304867 -0.200000
vertex 50.000000 32.704418 -0.200000
vertex 50.000000 32.704418 -0.115401
endloop
endfacet
facet normal 0.244045 -0.969764 0.000000
outer loop
vertex 44.438599 31.304867 -0.200000
vertex 50.000000 32.704418 -0.115401
vertex 44.438599 31.304867 0.200000
endloop
endfacet
facet normal -0.244045 0.969764 0.000000
outer loop
vertex 13.946362 21.569016 -0.200000
vertex 13.525114 21.463007 -0.200000
vertex 13.525114 21.463007 0.200000
endloop
endfacet
facet normal 0.000000 0.000000 0.000000
outer loop
vertex 13.946362 21.569016 0.200000
vertex 28.864422 25.323204 0.200000
vertex 43.775440 29.075619 0.200000
endloop
endfacet
facet normal -0.244044 0.969764 0.000000
outer loop
vertex 13.946362 21.569016 -0.200000
vertex 13.525114 21.463007 0.200000
vertex 13.946362 21.569016 0.200000
endloop
endfacet
facet normal 0.000000 0.000000 -1.000000
outer loop
vertex 46.119965 29.665630 -0.200000
vertex 43.775440 29.075619 -0.200000
vertex 28.864422 25.323204 -0.200000
endloop
endfacet
facet normal -0.244045 0.969764 0.000000
outer loop
vertex 28.864422 25.323204 -0.200000
vertex 13.946362 21.569016 -0.200000
vertex 13.946362 21.569016 0.200000
endloop
endfacet
facet normal 0.000000 0.000000 0.000000
outer loop
vertex 43.775440 29.075619 0.200000
vertex 46.119965 29.665630 0.200000
vertex 50.000000 30.642061 0.200000
endloop
endfacet
facet normal -0.244045 0.969764 0.000000
outer loop
vertex 28.864422 25.323204 -0.200000
vertex 13.946362 21.569016 0.200000
vertex 43.775440 29.075619 0.200000
endloop
endfacet
facet normal -0.244046 0.969764 0.000000
outer loop
vertex 50.000000 30.642061 -0.105314
vertex 50.000000 30.642061 -0.200000
vertex 46.119965 29.665630 -0.200000
endloop
endfacet
facet normal -0.244045 0.969764 0.000009
outer loop
vertex 46.119965 29.665630 -0.200000
vertex 28.864422 25.323204 -0.200000
vertex 43.775440 29.075619 0.200000
endloop
endfacet
facet normal -0.244046 0.969764 0.000000
outer loop
vertex 43.775440 29.075619 0.200000
vertex 50.000000 30.642061 0.200000
vertex 50.000000 30.642061 -0.105314
endloop
endfacet
facet normal -0.244046 0.969764 0.000000
outer loop
vertex 43.775440 29.075619 0.200000
vertex 50.000000 30.642061 -0.105314
vertex 46.119965 29.665630 -0.200000
endloop
endfacet
facet normal -0.244045 0.969764 0.000000
outer loop
vertex 17.571728 7.978045 -0.200000
vertex 15.525116 7.463007 -0.200000
vertex 15.525116 7.463007 0.200000
endloop
endfacet
facet normal -0.244045 0.969764 0.000003
outer loop
vertex 15.525116 7.463007 0.200000
vertex 19.357094 8.427340 0.200000
vertex 19.357094 8.427341 -0.084088
endloop
endfacet
facet normal -0.244045 0.969764 0.000000
outer loop
vertex 19.357094 8.427341 -0.084088
vertex 19.357094 8.427340 -0.200000
vertex 17.571728 7.978045 -0.200000
endloop
endfacet
facet normal -0.244046 0.969764 -0.000008
outer loop
vertex 15.525116 7.463007 0.200000
vertex 19.357094 8.427341 -0.084088
vertex 17.571728 7.978045 -0.200000
endloop
endfacet
facet normal -0.244045 0.969764 0.000000
outer loop
vertex 43.212975 14.430775 0.200000
vertex 50.000000 16.138756 0.200000
vertex 50.000000 16.138756 -0.034373
endloop
endfacet
facet normal -0.244045 0.969764 0.000000
outer loop
vertex 50.000000 16.138756 -0.034373
vertex 50.000000 16.138756 -0.200000
vertex 43.212975 14.430775 -0.200000
endloop
endfacet
facet normal -0.244046 0.969764 0.000000
outer loop
vertex 43.212975 14.430775 -0.200000
vertex 39.357086 13.460419 -0.200000
vertex 39.357086 13.460419 0.184749
endloop
endfacet
facet normal -0.244047 0.969764 0.000000
outer loop
vertex 39.357086 13.460419 0.184749
vertex 39.357086 13.460419 0.200000
vertex 43.212975 14.430775 0.200000
endloop
endfacet
facet normal -0.244045 0.969764 0.000000
outer loop
vertex 43.212975 14.430775 0.200000
vertex 50.000000 16.138756 -0.034373
vertex 43.212975 14.430775 -0.200000
endloop
endfacet
facet normal -0.244046 0.969764 0.000000
outer loop
vertex 43.212975 14.430775 -0.200000
vertex 39.357086 13.460419 0.184749
vertex 43.212975 14.430775 0.200000
endloop
endfacet
facet normal 0.000000 0.000000 -1.000000
outer loop
vertex 19.357094 10.489697 -0.200000
vertex 18.207048 10.200283 -0.200000
vertex 19.357094 14.222944 -0.200000
endloop
endfacet
facet normal -1.000000 0.000000 0.000000
outer loop
vertex 6.999995 13.896523 -0.019963
vertex 6.999995 13.896523 0.200000
vertex 6.999996 22.589130 0.200000
endloop
endfacet
facet normal -1.000000 0.000000 0.000000
outer loop
vertex 6.999996 22.589130 0.200000
vertex 6.999996 22.589128 -0.111465
vertex 6.999995 13.896523 -0.019963
endloop
endfacet
facet normal -1.000000 0.000000 0.000000
outer loop
vertex 6.999995 24.651489 -0.133174
vertex 6.999995 24.651489 0.200000
vertex 6.999996 30.999998 0.200000
endloop
endfacet
facet normal -1.000000 0.000000 0.000000
outer loop
vertex 6.999996 30.999998 0.200000
vertex 6.999996 30.999998 -0.200000
vertex 6.999995 24.651489 -0.133174
endloop
endfacet
facet normal 0.000000 -0.000000 1.000000
outer loop
vertex 31.116165 27.952221 0.200000
vertex 31.886822 28.851999 0.200000
vertex 12.226281 23.904348 0.200000
endloop
endfacet
facet normal 0.000000 -0.000000 1.000000
outer loop
vertex 12.226281 23.904348 0.200000
vertex 13.265968 22.492777 0.200000
vertex 13.037024 23.402534 0.200000
endloop
endfacet
facet normal 0.000000 0.000000 1.000000
outer loop
vertex 12.226281 23.904348 0.200000
vertex 13.037024 23.402534 0.200000
vertex 31.116165 27.952221 0.200000
endloop
endfacet
facet normal 0.000000 0.000000 1.000000
outer loop
vertex 28.864422 25.323204 0.200000
vertex 13.946362 21.569016 0.200000
vertex 17.627630 16.571012 0.200000
endloop
endfacet
facet normal 0.000000 0.000000 1.000000
outer loop
vertex 17.627630 16.571012 0.200000
vertex 22.395971 17.770979 0.200000
vertex 28.864422 25.323204 0.200000
endloop
endfacet
facet normal 0.000000 0.000000 1.000000
outer loop
vertex 20.144232 15.141963 0.200000
vertex 18.909122 14.831148 0.200000
vertex 19.357094 14.222944 0.200000
endloop
endfacet
facet normal 0.244045 -0.969764 0.000000
outer loop
vertex 34.138565 31.481018 -0.200000
vertex 44.186455 34.009609 -0.200000
vertex 44.186455 34.009609 0.200000
endloop
endfacet
facet normal 0.000000 -0.007267 -0.999974
outer loop
vertex 44.186455 34.009609 0.200000
vertex 34.138565 31.481018 0.200000
vertex 10.944788 25.644211 0.200000
endloop
endfacet
facet normal 0.244045 -0.969764 0.000000
outer loop
vertex 8.966793 25.146442 0.200000
vertex 6.999995 24.651489 0.200000
vertex 6.999995 24.651489 -0.133174
endloop
endfacet
facet normal -0.000195 -0.004019 0.999992
outer loop
vertex 44.186455 34.009609 0.200000
vertex 10.944788 25.644211 0.200000
vertex 8.966793 25.146442 0.200000
endloop
endfacet
facet normal 0.244045 -0.969764 0.000006
outer loop
vertex 10.944788 25.644211 -0.200000
vertex 34.138565 31.481018 -0.200000
vertex 44.186455 34.009609 0.200000
endloop
endfacet
facet normal 0.244045 -0.969764 0.000000
outer loop
vertex 6.999995 24.651489 -0.133174
vertex 6.999995 24.651489 -0.200000
vertex 10.944788 25.644211 -0.200000
endloop
endfacet
facet normal 0.244045 -0.969764 0.000007
outer loop
vertex 44.186455 34.009609 0.200000
vertex 8.966793 25.146442 0.200000
vertex 6.999995 24.651489 -0.133174
endloop
endfacet
facet normal 0.244045 -0.969764 -0.000058
outer loop
vertex 44.186455 34.009609 0.200000
vertex 6.999995 24.651489 -0.133174
vertex 10.944788 25.644211 -0.200000
endloop
endfacet
facet normal -0.969763 -0.244050 0.000002
outer loop
vertex 47.674553 22.070086 -0.200000
vertex 47.674553 22.070087 0.200000
vertex 47.186462 24.009613 0.200000
endloop
endfacet
facet normal -0.969764 -0.244045 0.000000
outer loop
vertex 47.186462 24.009613 0.200000
vertex 47.186462 24.009613 -0.200000
vertex 47.674553 22.070086 -0.200000
endloop
endfacet
facet normal 1.000000 -0.000001 0.000000
outer loop
vertex 50.000000 18.201111 -0.044461
vertex 50.000000 18.201111 -0.200000
vertex 50.000000 30.642061 -0.200000
endloop
endfacet
facet normal 1.000000 0.000001 0.000000
outer loop
vertex 50.000000 30.642061 -0.200000
vertex 50.000000 30.642061 -0.105314
vertex 50.000000 18.201111 -0.044461
endloop
endfacet
facet normal 1.000000 0.000000 0.000000
outer loop
vertex 50.000000 32.704418 -0.115401
vertex 50.000000 32.704418 -0.200000
vertex 50.000000 50.000000 -0.200000
endloop
endfacet
facet normal 0.000000 -0.000000 1.000000
outer loop
vertex 44.519127 21.276011 0.200000
vertex 43.626350 16.597157 0.200000
vertex 50.000000 18.201111 0.200000
endloop
endfacet
facet normal -0.000000 -0.000000 1.000000
outer loop
vertex 50.000000 18.201111 0.200000
vertex 50.000000 30.642061 0.200000
vertex 46.119965 29.665630 0.200000
endloop
endfacet
facet normal -0.000000 0.000000 1.000000
outer loop
vertex 46.119965 29.665630 0.200000
vertex 44.932495 23.442390 0.200000
vertex 47.186462 24.009613 0.200000
endloop
endfacet
facet normal -0.000000 -0.000000 1.000000
outer loop
vertex 47.674553 22.070087 0.200000
vertex 44.519127 21.276011 0.200000
vertex 50.000000 18.201111 0.200000
endloop
endfacet
facet normal 0.000001 0.000000 1.000000
outer loop
vertex 46.119965 29.665630 0.200000
vertex 47.186462 24.009613 0.200000
vertex 47.674553 22.070087 0.200000
endloop
endfacet
facet normal 0.000000 0.000000 1.000000
outer loop
vertex 50.000000 18.201111 0.200000
vertex 46.119965 29.665630 0.200000
vertex 47.674553 22.070087 0.200000
endloop
endfacet
facet normal 0.000000 0.000000 1.000000
outer loop
vertex 46.533340 31.832022 0.200000
vertex 50.000000 32.704418 0.200000
vertex 50.000000 50.000000 0.200000
endloop
endfacet
facet normal 0.000000 0.000000 -1.000000
outer loop
vertex 31.886822 28.851999 -0.200000
vertex 44.665558 32.067822 -0.200000
vertex 44.438599 31.304867 -0.200000
endloop
endfacet
facet normal -0.000000 0.000000 -1.000000
outer loop
vertex 44.438599 31.304867 -0.200000
vertex 31.116165 27.952221 -0.200000
vertex 31.886822 28.851999 -0.200000
endloop
endfacet
facet normal -0.000000 0.000000 -1.000000
outer loop
vertex 28.864422 25.323204 -0.200000
vertex 43.775440 29.075619 -0.200000
vertex 41.870445 22.671810 -0.200000
endloop
endfacet
facet normal -0.000000 0.000000 -1.000000
outer loop
vertex 41.870445 22.671810 -0.200000
vertex 22.395971 17.770979 -0.200000
vertex 28.864422 25.323204 -0.200000
endloop
endfacet
facet normal 0.000000 0.000000 -1.000000
outer loop
vertex 19.357094 14.222944 -0.200000
vertex 20.144232 15.141963 -0.200000
vertex 41.207294 20.442570 -0.200000
endloop
endfacet
facet normal 0.000000 -0.000000 -1.000000
outer loop
vertex 41.207294 20.442570 -0.200000
vertex 39.775047 15.627955 -0.200000
vertex 34.191929 14.222944 -0.200000
endloop
endfacet
facet normal 0.000000 -0.000000 -1.000000
outer loop
vertex 41.207294 20.442570 -0.200000
vertex 34.191929 14.222944 -0.200000
vertex 19.357094 14.222944 -0.200000
endloop
endfacet
endsolid Exported from Blender-2.79 (sub 0)
